<?xml version="1.0" encoding="utf-8"?>
<!-- Generator: Adobe Illustrator 27.5.0, SVG Export Plug-In . SVG Version: 6.00 Build 0)  -->
<svg version="1.1" id="Layer_1" xmlns="http://www.w3.org/2000/svg" xmlns:xlink="http://www.w3.org/1999/xlink" x="0px" y="0px"
	 viewBox="0 0 504 288" style="enable-background:new 0 0 504 288;" xml:space="preserve">
<g>
	<g>
		<defs>
			<rect id="SVGID_141_" y="0" width="504" height="288"/>
		</defs>
		<use xlink:href="#SVGID_141_"  style="overflow:visible;fill:#E6E6E6;"/>
		<clipPath id="SVGID_00000031181006241581104500000014898784661297466533_">
			<use xlink:href="#SVGID_141_"  style="overflow:visible;"/>
		</clipPath>
		<g style="clip-path:url(#SVGID_00000031181006241581104500000014898784661297466533_);">
			<path style="fill:#FFFFFF;" d="M-0.081-68.41l-25.745,44.593h51.491L-0.081-68.41L-0.081-68.41z"/>
			<path style="fill:#FFFFFF;" d="M51.41-68.41L25.664-23.817h51.491L51.41-68.41L51.41-68.41z"/>
			<path style="fill:#FFFFFF;" d="M102.901-68.41L77.155-23.817h51.491L102.901-68.41L102.901-68.41z"/>
			<path style="fill:#FFFFFF;" d="M154.392-68.41l-25.745,44.593h51.491L154.392-68.41L154.392-68.41z"/>
			<path style="fill:#FFFFFF;" d="M205.883-68.41l-25.745,44.593h51.491L205.883-68.41L205.883-68.41z"/>
			<path style="fill:#FFFFFF;" d="M257.374-68.41l-25.745,44.593h51.491L257.374-68.41L257.374-68.41z"/>
			<path style="fill:#FFFFFF;" d="M308.865-68.41l-25.746,44.593h51.491L308.865-68.41L308.865-68.41z"/>
			<path style="fill:#FFFFFF;" d="M360.355-68.41L334.61-23.817h51.491L360.355-68.41L360.355-68.41z"/>
			<path style="fill:#F6FBFF;" d="M411.846-68.41l-25.746,44.593h51.491L411.846-68.41L411.846-68.41z"/>
			<path style="fill:#BAEDFF;" d="M463.337-68.41l-25.746,44.593h51.491L463.337-68.41L463.337-68.41z"/>
			<path style="fill:#DBF6FF;" d="M514.828-68.41l-25.745,44.593h51.491L514.828-68.41L514.828-68.41z"/>
			<path style="fill:#DBF6FF;" d="M566.319-68.41l-25.745,44.593h51.491L566.319-68.41L566.319-68.41z"/>
			<path style="fill:#DBF6FF;" d="M617.81-68.41l-25.746,44.593h51.491L617.81-68.41L617.81-68.41z"/>
			<path style="fill:#FFFFFF;" d="M-25.826-23.817l-25.745,44.592h51.491L-25.826-23.817L-25.826-23.817z"/>
			<path style="fill:#FFFFFF;" d="M25.664-23.817L-0.081,20.775H51.41L25.664-23.817L25.664-23.817z"/>
			<path style="fill:#FFFFFF;" d="M25.664-23.817L-0.081,20.775l-25.745-44.592L25.664-23.817L25.664-23.817z"/>
			<path style="fill:#FFFFFF;" d="M77.155-23.817L51.41,20.775h51.491L77.155-23.817L77.155-23.817z"/>
			<path style="fill:#FFFFFF;" d="M77.155-23.817L51.41,20.775L25.664-23.817L77.155-23.817L77.155-23.817z"/>
			<path style="fill:#FFFFFF;" d="M128.646-23.817l-25.745,44.592h51.491L128.646-23.817L128.646-23.817z"/>
			<path style="fill:#FFFFFF;" d="M128.646-23.817l-25.745,44.592L77.155-23.817L128.646-23.817L128.646-23.817z"/>
			<path style="fill:#FFFFFF;" d="M180.137-23.817l-25.746,44.592h51.491L180.137-23.817L180.137-23.817z"/>
			<path style="fill:#FFFFFF;" d="M180.137-23.817l-25.746,44.592l-25.745-44.592L180.137-23.817L180.137-23.817z"/>
			<path style="fill:#FFFFFF;" d="M231.628-23.817l-25.745,44.592h51.491L231.628-23.817L231.628-23.817z"/>
			<path style="fill:#FFFFFF;" d="M231.628-23.817l-25.745,44.592l-25.745-44.592L231.628-23.817L231.628-23.817z"/>
			<path style="fill:#FFFFFF;" d="M283.119-23.817l-25.745,44.592h51.491L283.119-23.817L283.119-23.817z"/>
			<path style="fill:#FFFFFF;" d="M283.119-23.817l-25.745,44.592l-25.745-44.592L283.119-23.817L283.119-23.817z"/>
			<path style="fill:#FFFFFF;" d="M334.61-23.817l-25.745,44.592h51.491L334.61-23.817L334.61-23.817z"/>
			<path style="fill:#FFFFFF;" d="M334.61-23.817l-25.745,44.592l-25.746-44.592L334.61-23.817L334.61-23.817z"/>
			<path style="fill:#FEFEFF;" d="M386.101-23.817l-25.745,44.592h51.491L386.101-23.817L386.101-23.817z"/>
			<path style="fill:#FFFFFF;" d="M386.101-23.817l-25.745,44.592L334.61-23.817L386.101-23.817L386.101-23.817z"/>
			<path style="fill:#C3EFFA;" d="M437.592-23.817l-25.745,44.592h51.491L437.592-23.817L437.592-23.817z"/>
			<path style="fill:#F6FBFF;" d="M437.592-23.817l-25.745,44.592l-25.746-44.592L437.592-23.817L437.592-23.817z"/>
			<path style="fill:#D8F4FF;" d="M489.083-23.817l-25.745,44.592h51.491L489.083-23.817L489.083-23.817z"/>
			<path style="fill:#BAEDFF;" d="M489.083-23.817l-25.745,44.592l-25.746-44.592L489.083-23.817L489.083-23.817z"/>
			<path style="fill:#DBF6FF;" d="M540.574-23.817l-25.746,44.592h51.491L540.574-23.817L540.574-23.817z"/>
			<path style="fill:#DBF6FF;" d="M540.574-23.817l-25.746,44.592l-25.745-44.592L540.574-23.817L540.574-23.817z"/>
			<path style="fill:#DBF6FF;" d="M592.065-23.817l-25.745,44.592h51.491L592.065-23.817L592.065-23.817z"/>
			<path style="fill:#DBF6FF;" d="M592.065-23.817l-25.745,44.592l-25.745-44.592L592.065-23.817L592.065-23.817z"/>
			<path style="fill:#FFFFFF;" d="M-0.081,20.775l-25.745,44.592h51.491L-0.081,20.775z"/>
			<path style="fill:#FFFFFF;" d="M51.41,20.775L25.664,65.367h51.491L51.41,20.775z"/>
			<path style="fill:#FFFFFF;" d="M51.41,20.775L25.664,65.367L-0.081,20.775H51.41z"/>
			<path style="fill:#FFFFFF;" d="M102.901,20.775L77.155,65.367h51.491L102.901,20.775z"/>
			<path style="fill:#FFFFFF;" d="M102.901,20.775L77.155,65.367L51.41,20.775H102.901z"/>
			<path style="fill:#FFFFFF;" d="M154.392,20.775l-25.745,44.592h51.491L154.392,20.775z"/>
			<path style="fill:#FFFFFF;" d="M154.392,20.775l-25.745,44.592l-25.745-44.592H154.392z"/>
			<path style="fill:#FFFFFF;" d="M205.883,20.775l-25.745,44.592h51.491L205.883,20.775z"/>
			<path style="fill:#FFFFFF;" d="M205.883,20.775l-25.745,44.592l-25.746-44.592H205.883z"/>
			<path style="fill:#FFFFFF;" d="M257.374,20.775l-25.745,44.592h51.491L257.374,20.775z"/>
			<path style="fill:#FFFFFF;" d="M257.374,20.775l-25.745,44.592l-25.745-44.592H257.374z"/>
			<path style="fill:#FFFFFF;" d="M308.865,20.775l-25.746,44.592h51.491L308.865,20.775z"/>
			<path style="fill:#FFFFFF;" d="M308.865,20.775l-25.746,44.592l-25.745-44.592H308.865z"/>
			<path style="fill:#FFFFFF;" d="M360.355,20.775L334.61,65.367h51.491L360.355,20.775z"/>
			<path style="fill:#FFFFFF;" d="M360.355,20.775L334.61,65.367l-25.745-44.592H360.355z"/>
			<path style="fill:#F1FBFD;" d="M411.846,20.775l-25.746,44.592h51.491L411.846,20.775z"/>
			<path style="fill:#FEFEFF;" d="M411.846,20.775l-25.746,44.592l-25.745-44.592H411.846z"/>
			<path style="fill:#84E1FF;" d="M463.337,20.775l-25.746,44.592h51.491L463.337,20.775z"/>
			<path style="fill:#C3EFFA;" d="M463.337,20.775l-25.746,44.592l-25.745-44.592H463.337z"/>
			<path style="fill:#B3EEFF;" d="M514.828,20.775l-25.745,44.592h51.491L514.828,20.775z"/>
			<path style="fill:#D8F4FF;" d="M514.828,20.775l-25.745,44.592l-25.745-44.592H514.828z"/>
			<path style="fill:#B3EEFF;" d="M566.319,20.775l-25.745,44.592h51.491L566.319,20.775z"/>
			<path style="fill:#DBF6FF;" d="M566.319,20.775l-25.745,44.592l-25.746-44.592H566.319z"/>
			<path style="fill:#B3EEFF;" d="M617.81,20.775l-25.746,44.592h51.491L617.81,20.775z"/>
			<path style="fill:#DBF6FF;" d="M617.81,20.775l-25.746,44.592l-25.745-44.592H617.81z"/>
			<path style="fill:#FFFFFF;" d="M-25.826,65.368l-25.745,44.593h51.491L-25.826,65.368L-25.826,65.368z"/>
			<path style="fill:#FFFFFF;" d="M25.664,65.368L-0.081,109.96H51.41L25.664,65.368L25.664,65.368z"/>
			<path style="fill:#FFFFFF;" d="M25.664,65.368L-0.081,109.96l-25.745-44.593L25.664,65.368L25.664,65.368z"/>
			<path style="fill:#FFFFFF;" d="M77.155,65.368L51.41,109.96h51.491L77.155,65.368L77.155,65.368z"/>
			<path style="fill:#FFFFFF;" d="M77.155,65.368L51.41,109.96L25.664,65.367L77.155,65.368L77.155,65.368z"/>
			<path style="fill:#FFFFFF;" d="M128.646,65.368l-25.745,44.593h51.491L128.646,65.368L128.646,65.368z"/>
			<path style="fill:#FFFFFF;" d="M128.646,65.368l-25.745,44.593L77.155,65.367L128.646,65.368L128.646,65.368z"/>
			<path style="fill:#FFFFFF;" d="M180.137,65.368l-25.746,44.593h51.491L180.137,65.368L180.137,65.368z"/>
			<path style="fill:#FFFFFF;" d="M180.137,65.368l-25.746,44.593l-25.745-44.593L180.137,65.368L180.137,65.368z"/>
			<path style="fill:#FFFFFF;" d="M231.628,65.368l-25.745,44.593h51.491L231.628,65.368L231.628,65.368z"/>
			<path style="fill:#FFFFFF;" d="M231.628,65.368l-25.745,44.593l-25.745-44.593L231.628,65.368L231.628,65.368z"/>
			<path style="fill:#FFFFFF;" d="M283.119,65.368l-25.745,44.593h51.491L283.119,65.368L283.119,65.368z"/>
			<path style="fill:#FFFFFF;" d="M283.119,65.368l-25.745,44.593l-25.745-44.593L283.119,65.368L283.119,65.368z"/>
			<path style="fill:#FFFFFF;" d="M334.61,65.368l-25.745,44.593h51.491L334.61,65.368L334.61,65.368z"/>
			<path style="fill:#FFFFFF;" d="M334.61,65.368l-25.745,44.593l-25.746-44.593L334.61,65.368L334.61,65.368z"/>
			<path style="fill:#FDFEFF;" d="M386.101,65.368l-25.745,44.593h51.491L386.101,65.368L386.101,65.368z"/>
			<path style="fill:#FFFFFF;" d="M386.101,65.368l-25.745,44.593L334.61,65.367L386.101,65.368L386.101,65.368z"/>
			<path style="fill:#6CD7FB;" d="M437.592,65.368l-25.745,44.593h51.491L437.592,65.368L437.592,65.368z"/>
			<path style="fill:#EEF9FF;" d="M437.592,65.368l-25.745,44.593l-25.746-44.593L437.592,65.368L437.592,65.368z"/>
			<path style="fill:#9CE8FF;" d="M489.083,65.368l-25.745,44.593h51.491L489.083,65.368L489.083,65.368z"/>
			<path style="fill:#8FE5FE;" d="M489.083,65.368l-25.745,44.593l-25.746-44.593L489.083,65.368L489.083,65.368z"/>
			<path style="fill:#A3EAFF;" d="M540.574,65.368l-25.746,44.593h51.491L540.574,65.368L540.574,65.368z"/>
			<path style="fill:#A7EBFE;" d="M540.574,65.368l-25.746,44.593l-25.745-44.593L540.574,65.368L540.574,65.368z"/>
			<path style="fill:#A3EAFF;" d="M592.065,65.368l-25.745,44.593h51.491L592.065,65.368L592.065,65.368z"/>
			<path style="fill:#A7EBFE;" d="M592.065,65.368l-25.745,44.593l-25.745-44.593L592.065,65.368L592.065,65.368z"/>
			<path style="fill:#FFFFFF;" d="M-0.081,109.96l-25.745,44.592h51.491L-0.081,109.96L-0.081,109.96z"/>
			<path style="fill:#FFFFFF;" d="M51.41,109.96l-25.745,44.592h51.491L51.41,109.96L51.41,109.96z"/>
			<path style="fill:#FFFFFF;" d="M51.41,109.96l-25.745,44.592L-0.081,109.96L51.41,109.96L51.41,109.96z"/>
			<path style="fill:#FFFFFF;" d="M102.901,109.96l-25.746,44.592h51.491L102.901,109.96L102.901,109.96z"/>
			<path style="fill:#FFFFFF;" d="M102.901,109.96l-25.746,44.592L51.41,109.96L102.901,109.96L102.901,109.96z"/>
			<path style="fill:#FFFFFF;" d="M154.392,109.96l-25.745,44.592h51.491L154.392,109.96L154.392,109.96z"/>
			<path style="fill:#FFFFFF;" d="M154.392,109.96l-25.745,44.592l-25.745-44.592L154.392,109.96L154.392,109.96z"/>
			<path style="fill:#FFFFFF;" d="M205.883,109.96l-25.745,44.592h51.491L205.883,109.96L205.883,109.96z"/>
			<path style="fill:#FFFFFF;" d="M205.883,109.96l-25.745,44.592l-25.746-44.592L205.883,109.96L205.883,109.96z"/>
			<path style="fill:#FFFFFF;" d="M257.374,109.96l-25.745,44.592h51.491L257.374,109.96L257.374,109.96z"/>
			<path style="fill:#FFFFFF;" d="M257.374,109.96l-25.745,44.592l-25.745-44.592L257.374,109.96L257.374,109.96z"/>
			<path style="fill:#FFFFFF;" d="M308.865,109.96l-25.746,44.592h51.491L308.865,109.96L308.865,109.96z"/>
			<path style="fill:#FFFFFF;" d="M308.865,109.96l-25.746,44.592l-25.745-44.592L308.865,109.96L308.865,109.96z"/>
			<path style="fill:#FDFEFF;" d="M360.355,109.96l-25.745,44.592h51.491L360.355,109.96L360.355,109.96z"/>
			<path style="fill:#FFFFFF;" d="M360.355,109.96l-25.745,44.592l-25.745-44.592L360.355,109.96L360.355,109.96z"/>
			<path style="fill:#C7EEFF;" d="M411.846,109.96l-25.746,44.592h51.491L411.846,109.96L411.846,109.96z"/>
			<path style="fill:#F8FCFF;" d="M411.846,109.96l-25.746,44.592l-25.745-44.592L411.846,109.96L411.846,109.96z"/>
			<path style="fill:#75DCFF;" d="M463.337,109.96l-25.746,44.592h51.491L463.337,109.96L463.337,109.96z"/>
			<path style="fill:#4ECCFC;" d="M463.337,109.96l-25.746,44.592l-25.745-44.592L463.337,109.96L463.337,109.96z"/>
			<path style="fill:#9BE9FF;" d="M514.828,109.96l-25.745,44.592h51.491L514.828,109.96L514.828,109.96z"/>
			<path style="fill:#91E7FF;" d="M514.828,109.96l-25.745,44.592l-25.745-44.592L514.828,109.96L514.828,109.96z"/>
			<path style="fill:#9BE9FF;" d="M566.319,109.96l-25.745,44.592h51.491L566.319,109.96L566.319,109.96z"/>
			<path style="fill:#9DE9FF;" d="M566.319,109.96l-25.745,44.592l-25.746-44.592L566.319,109.96L566.319,109.96z"/>
			<path style="fill:#9BE9FF;" d="M617.81,109.96l-25.746,44.592h51.491L617.81,109.96L617.81,109.96z"/>
			<path style="fill:#9DE9FF;" d="M617.81,109.96l-25.746,44.592l-25.745-44.592L617.81,109.96L617.81,109.96z"/>
			<path style="fill:#DBF8FF;" d="M-25.826,154.553l-25.745,44.592h51.491L-25.826,154.553L-25.826,154.553z"/>
			<path style="fill:#DBF8FF;" d="M25.664,154.553l-25.746,44.592H51.41L25.664,154.553L25.664,154.553z"/>
			<path style="fill:#FFFFFF;" d="M25.664,154.553l-25.746,44.592l-25.745-44.592H25.664L25.664,154.553z"/>
			<path style="fill:#FFFFFF;" d="M77.155,154.553L51.41,199.145h51.491L77.155,154.553L77.155,154.553z"/>
			<path style="fill:#FFFFFF;" d="M77.155,154.553L51.41,199.145l-25.745-44.592H77.155L77.155,154.553z"/>
			<path style="fill:#FFFFFF;" d="M128.646,154.553l-25.745,44.592h51.491L128.646,154.553L128.646,154.553z"/>
			<path style="fill:#FFFFFF;" d="M128.646,154.553l-25.745,44.592l-25.746-44.592H128.646L128.646,154.553z"/>
			<path style="fill:#FFFFFF;" d="M180.137,154.553l-25.746,44.592h51.491L180.137,154.553L180.137,154.553z"/>
			<path style="fill:#FFFFFF;" d="M180.137,154.553l-25.746,44.592l-25.745-44.592H180.137L180.137,154.553z"/>
			<path style="fill:#FFFFFF;" d="M231.628,154.553l-25.745,44.592h51.491L231.628,154.553L231.628,154.553z"/>
			<path style="fill:#FFFFFF;" d="M231.628,154.553l-25.745,44.592l-25.745-44.592H231.628L231.628,154.553z"/>
			<path style="fill:#FFFFFF;" d="M283.119,154.553l-25.745,44.592h51.491L283.119,154.553L283.119,154.553z"/>
			<path style="fill:#FFFFFF;" d="M283.119,154.553l-25.745,44.592l-25.745-44.592H283.119L283.119,154.553z"/>
			<path style="fill:#FCFDFF;" d="M334.61,154.553l-25.745,44.592h51.491L334.61,154.553L334.61,154.553z"/>
			<path style="fill:#FFFFFF;" d="M334.61,154.553l-25.745,44.592l-25.746-44.592H334.61L334.61,154.553z"/>
			<path style="fill:#87DCFB;" d="M386.101,154.553l-25.745,44.592h51.491L386.101,154.553L386.101,154.553z"/>
			<path style="fill:#F8FCFF;" d="M386.101,154.553l-25.745,44.592l-25.745-44.592H386.101L386.101,154.553z"/>
			<path style="fill:#65D6FF;" d="M437.592,154.553l-25.745,44.592h51.491L437.592,154.553L437.592,154.553z"/>
			<path style="fill:#38C5FB;" d="M437.592,154.553l-25.745,44.592l-25.746-44.592H437.592L437.592,154.553z"/>
			<path style="fill:#95E7FF;" d="M489.083,154.553l-25.745,44.592h51.491L489.083,154.553L489.083,154.553z"/>
			<path style="fill:#70DBFF;" d="M489.083,154.553l-25.745,44.592l-25.746-44.592H489.083L489.083,154.553z"/>
			<path style="fill:#9BE9FF;" d="M540.574,154.553l-25.746,44.592h51.491L540.574,154.553L540.574,154.553z"/>
			<path style="fill:#9BE9FF;" d="M540.574,154.553l-25.746,44.592l-25.745-44.592H540.574L540.574,154.553z"/>
			<path style="fill:#9BE9FF;" d="M592.065,154.553l-25.745,44.592h51.491L592.065,154.553L592.065,154.553z"/>
			<path style="fill:#9BE9FF;" d="M592.065,154.553l-25.745,44.592l-25.745-44.592H592.065L592.065,154.553z"/>
			<path style="fill:#D4F4FF;" d="M-0.081,199.145l-25.745,44.593h51.491L-0.081,199.145L-0.081,199.145z"/>
			<path style="fill:#D4F4FF;" d="M51.41,199.145l-25.745,44.593h51.491L51.41,199.145L51.41,199.145z"/>
			<path style="fill:#E3FAFF;" d="M51.41,199.145l-25.745,44.593l-25.746-44.593L51.41,199.145L51.41,199.145z"/>
			<path style="fill:#D9F6FE;" d="M102.901,199.145l-25.746,44.593h51.491L102.901,199.145L102.901,199.145z"/>
			<path style="fill:#DDF8FF;" d="M102.901,199.145l-25.746,44.593L51.41,199.145L102.901,199.145L102.901,199.145z"/>
			<path style="fill:#FFFFFF;" d="M154.392,199.145l-25.745,44.593h51.491L154.392,199.145L154.392,199.145z"/>
			<path style="fill:#FFFFFF;" d="M154.392,199.145l-25.745,44.593l-25.745-44.593L154.392,199.145L154.392,199.145z"/>
			<path style="fill:#FFFFFF;" d="M205.883,199.145l-25.745,44.593h51.491L205.883,199.145L205.883,199.145z"/>
			<path style="fill:#FFFFFF;" d="M205.883,199.145l-25.745,44.593l-25.746-44.593L205.883,199.145L205.883,199.145z"/>
			<path style="fill:#FDFEFF;" d="M257.374,199.145l-25.745,44.593h51.491L257.374,199.145L257.374,199.145z"/>
			<path style="fill:#FFFFFF;" d="M257.374,199.145l-25.745,44.593l-25.745-44.593L257.374,199.145L257.374,199.145z"/>
			<path style="fill:#B9EEFE;" d="M308.865,199.145l-25.746,44.593h51.491L308.865,199.145L308.865,199.145z"/>
			<path style="fill:#FDFEFF;" d="M308.865,199.145l-25.746,44.593l-25.745-44.593L308.865,199.145L308.865,199.145z"/>
			<path style="fill:#0D87EA;" d="M360.355,199.145l-25.745,44.593h51.491L360.355,199.145L360.355,199.145z"/>
			<path style="fill:#B6EEFF;" d="M360.355,199.145l-25.745,44.593l-25.745-44.593L360.355,199.145L360.355,199.145z"/>
			<path style="fill:#10B1FF;" d="M411.846,199.145l-25.746,44.593h51.491L411.846,199.145L411.846,199.145z"/>
			<path style="fill:#2AC5FD;" d="M411.846,199.145l-25.746,44.593l-25.745-44.593L411.846,199.145L411.846,199.145z"/>
			<path style="fill:#95E7FF;" d="M463.337,199.145l-25.746,44.593h51.491L463.337,199.145L463.337,199.145z"/>
			<path style="fill:#5BD1FF;" d="M463.337,199.145l-25.746,44.593l-25.745-44.593L463.337,199.145L463.337,199.145z"/>
			<path style="fill:#A6EAFF;" d="M514.828,199.145l-25.745,44.593h51.491L514.828,199.145L514.828,199.145z"/>
			<path style="fill:#9BE9FF;" d="M514.828,199.145l-25.745,44.593l-25.745-44.593L514.828,199.145L514.828,199.145z"/>
			<path style="fill:#A6EAFF;" d="M566.319,199.145l-25.745,44.593h51.491L566.319,199.145L566.319,199.145z"/>
			<path style="fill:#A1E9FF;" d="M566.319,199.145l-25.745,44.593l-25.746-44.593L566.319,199.145L566.319,199.145z"/>
			<path style="fill:#A6EAFF;" d="M617.81,199.145l-25.746,44.593h51.491L617.81,199.145L617.81,199.145z"/>
			<path style="fill:#A1E9FF;" d="M617.81,199.145l-25.746,44.593l-25.745-44.593L617.81,199.145L617.81,199.145z"/>
			<path style="fill:#B9EEFF;" d="M-25.826,243.737l-25.745,44.592h51.491L-25.826,243.737L-25.826,243.737z"/>
			<path style="fill:#B9EEFF;" d="M25.664,243.737L-0.081,288.33H51.41L25.664,243.737L25.664,243.737z"/>
			<path style="fill:#CEF4FF;" d="M25.664,243.737L-0.081,288.33l-25.745-44.592L25.664,243.737L25.664,243.737z"/>
			<path style="fill:#ADEBFF;" d="M77.155,243.737L51.41,288.33h51.491L77.155,243.737L77.155,243.737z"/>
			<path style="fill:#CEF4FF;" d="M77.155,243.737L51.41,288.33l-25.745-44.592L77.155,243.737L77.155,243.737z"/>
			<path style="fill:#1294EC;" d="M128.646,243.737l-25.745,44.592h51.491L128.646,243.737L128.646,243.737z"/>
			<path style="fill:#BAEDFE;" d="M128.646,243.737l-25.745,44.592l-25.746-44.592L128.646,243.737L128.646,243.737z"/>
			<path style="fill:#8FE3FF;" d="M180.137,243.737l-25.746,44.592h51.491L180.137,243.737L180.137,243.737z"/>
			<path style="fill:#9AE6FF;" d="M180.137,243.737l-25.746,44.592l-25.745-44.592L180.137,243.737L180.137,243.737z"/>
			<path style="fill:#8CDFFD;" d="M231.628,243.737l-25.745,44.592h51.491L231.628,243.737L231.628,243.737z"/>
			<path style="fill:#B6EDFF;" d="M231.628,243.737l-25.745,44.592l-25.745-44.592L231.628,243.737L231.628,243.737z"/>
			<path style="fill:#0C7DE7;" d="M283.119,243.737l-25.745,44.592h51.491L283.119,243.737L283.119,243.737z"/>
			<path style="fill:#92E3FE;" d="M283.119,243.737l-25.745,44.592l-25.745-44.592L283.119,243.737L283.119,243.737z"/>
			<path style="fill:#0AA9FD;" d="M334.61,243.737l-25.745,44.592h51.491L334.61,243.737L334.61,243.737z"/>
			<path style="fill:#0D81E8;" d="M334.61,243.737l-25.745,44.592l-25.746-44.592L334.61,243.737L334.61,243.737z"/>
			<path style="fill:#7ADCFF;" d="M386.101,243.737l-25.745,44.592h51.491L386.101,243.737L386.101,243.737z"/>
			<path style="fill:#6DD7FF;" d="M386.101,243.737l-25.745,44.592l-25.745-44.592L386.101,243.737L386.101,243.737z"/>
			<path style="fill:#A4EBFF;" d="M437.592,243.737l-25.745,44.592h51.491L437.592,243.737L437.592,243.737z"/>
			<path style="fill:#9CE8FF;" d="M437.592,243.737l-25.745,44.592l-25.746-44.592L437.592,243.737L437.592,243.737z"/>
			<path style="fill:#AFECFF;" d="M489.083,243.737l-25.745,44.592h51.491L489.083,243.737L489.083,243.737z"/>
			<path style="fill:#A2EAFF;" d="M489.083,243.737l-25.745,44.592l-25.746-44.592L489.083,243.737L489.083,243.737z"/>
			<path style="fill:#B5EEFF;" d="M540.574,243.737l-25.746,44.592h51.491L540.574,243.737L540.574,243.737z"/>
			<path style="fill:#AFECFF;" d="M540.574,243.737l-25.746,44.592l-25.745-44.592L540.574,243.737L540.574,243.737z"/>
			<path style="fill:#B5EEFF;" d="M592.065,243.737l-25.745,44.592h51.491L592.065,243.737L592.065,243.737z"/>
			<path style="fill:#AFECFF;" d="M592.065,243.737l-25.745,44.592l-25.745-44.592L592.065,243.737L592.065,243.737z"/>
			<path style="fill:#96E3FF;" d="M-0.081,288.33l-25.745,44.592h51.491L-0.081,288.33L-0.081,288.33z"/>
			<path style="fill:#96E3FF;" d="M51.41,288.33l-25.745,44.592h51.491L51.41,288.33L51.41,288.33z"/>
			<path style="fill:#96E3FF;" d="M51.41,288.33l-25.745,44.592L-0.081,288.33L51.41,288.33L51.41,288.33z"/>
			<path style="fill:#94E4FF;" d="M102.901,288.33l-25.746,44.592h51.491L102.901,288.33L102.901,288.33z"/>
			<path style="fill:#6BD6FF;" d="M102.901,288.33l-25.746,44.592L51.41,288.33L102.901,288.33L102.901,288.33z"/>
			<path style="fill:#13B6FB;" d="M154.392,288.33l-25.745,44.592h51.491L154.392,288.33L154.392,288.33z"/>
			<path style="fill:#0FAFFB;" d="M154.392,288.33l-25.745,44.592l-25.745-44.592L154.392,288.33L154.392,288.33z"/>
			<path style="fill:#AAEBFF;" d="M205.883,288.33l-25.745,44.592h51.491L205.883,288.33L205.883,288.33z"/>
			<path style="fill:#B2EDFF;" d="M205.883,288.33l-25.745,44.592l-25.746-44.592L205.883,288.33L205.883,288.33z"/>
			<path style="fill:#0CA9FA;" d="M257.374,288.33l-25.745,44.592h51.491L257.374,288.33L257.374,288.33z"/>
			<path style="fill:#9CE6FF;" d="M257.374,288.33l-25.745,44.592l-25.745-44.592L257.374,288.33L257.374,288.33z"/>
			<path style="fill:#65D6FF;" d="M308.865,288.33l-25.746,44.592h51.491L308.865,288.33L308.865,288.33z"/>
			<path style="fill:#0A9FFB;" d="M308.865,288.33l-25.746,44.592l-25.745-44.592L308.865,288.33L308.865,288.33z"/>
			<path style="fill:#94E6FE;" d="M360.355,288.33l-25.745,44.592h51.491L360.355,288.33L360.355,288.33z"/>
			<path style="fill:#0EB4FE;" d="M360.355,288.33l-25.745,44.592l-25.745-44.592L360.355,288.33L360.355,288.33z"/>
			<path style="fill:#ADECFE;" d="M411.846,288.33l-25.746,44.592h51.491L411.846,288.33L411.846,288.33z"/>
			<path style="fill:#AEEDFF;" d="M411.846,288.33l-25.746,44.592l-25.745-44.592L411.846,288.33L411.846,288.33z"/>
			<path style="fill:#B1EEFF;" d="M463.337,288.33l-25.746,44.592h51.491L463.337,288.33L463.337,288.33z"/>
			<path style="fill:#AEEDFF;" d="M463.337,288.33l-25.746,44.592l-25.745-44.592L463.337,288.33L463.337,288.33z"/>
			<path style="fill:#BDF1FF;" d="M514.828,288.33l-25.745,44.592h51.491L514.828,288.33L514.828,288.33z"/>
			<path style="fill:#B7EFFF;" d="M514.828,288.33l-25.745,44.592l-25.745-44.592L514.828,288.33L514.828,288.33z"/>
			<path style="fill:#BDF1FF;" d="M566.319,288.33l-25.745,44.592h51.491L566.319,288.33L566.319,288.33z"/>
			<path style="fill:#BDF1FF;" d="M566.319,288.33l-25.745,44.592l-25.746-44.592L566.319,288.33L566.319,288.33z"/>
			<path style="fill:#BDF1FF;" d="M617.81,288.33l-25.746,44.592h51.491L617.81,288.33L617.81,288.33z"/>
			<path style="fill:#BDF1FF;" d="M617.81,288.33l-25.746,44.592l-25.745-44.592L617.81,288.33L617.81,288.33z"/>
			<path style="fill:#96E3FF;" d="M-25.826,332.922l-25.745,44.593h51.491L-25.826,332.922L-25.826,332.922z"/>
			<path style="fill:#96E3FF;" d="M25.664,332.922l-25.746,44.593H51.41L25.664,332.922L25.664,332.922z"/>
			<path style="fill:#96E3FF;" d="M25.664,332.922l-25.746,44.593l-25.745-44.593L25.664,332.922L25.664,332.922z"/>
			<path style="fill:#6BD6FF;" d="M77.155,332.922L51.41,377.515h51.491L77.155,332.922L77.155,332.922z"/>
			<path style="fill:#96E3FF;" d="M77.155,332.922L51.41,377.515l-25.745-44.593L77.155,332.922L77.155,332.922z"/>
			<path style="fill:#0FAFFB;" d="M128.646,332.922l-25.745,44.593h51.491L128.646,332.922L128.646,332.922z"/>
			<path style="fill:#94E4FF;" d="M128.646,332.922l-25.745,44.593l-25.746-44.593L128.646,332.922L128.646,332.922z"/>
			<path style="fill:#B2EDFF;" d="M180.137,332.922l-25.746,44.593h51.491L180.137,332.922L180.137,332.922z"/>
			<path style="fill:#13B6FB;" d="M180.137,332.922l-25.746,44.593l-25.745-44.593L180.137,332.922L180.137,332.922z"/>
			<path style="fill:#9CE6FF;" d="M231.628,332.922l-25.745,44.593h51.491L231.628,332.922L231.628,332.922z"/>
			<path style="fill:#AAEBFF;" d="M231.628,332.922l-25.745,44.593l-25.745-44.593L231.628,332.922L231.628,332.922z"/>
			<path style="fill:#0A9FFB;" d="M283.119,332.922l-25.745,44.593h51.491L283.119,332.922L283.119,332.922z"/>
			<path style="fill:#0CA9FA;" d="M283.119,332.922l-25.745,44.593l-25.745-44.593L283.119,332.922L283.119,332.922z"/>
			<path style="fill:#0EB4FE;" d="M334.61,332.922l-25.745,44.593h51.491L334.61,332.922L334.61,332.922z"/>
			<path style="fill:#65D6FF;" d="M334.61,332.922l-25.745,44.593l-25.746-44.593L334.61,332.922L334.61,332.922z"/>
			<path style="fill:#AEEDFF;" d="M386.101,332.922l-25.745,44.593h51.491L386.101,332.922L386.101,332.922z"/>
			<path style="fill:#94E6FE;" d="M386.101,332.922l-25.745,44.593l-25.745-44.593L386.101,332.922L386.101,332.922z"/>
			<path style="fill:#AEEDFF;" d="M437.592,332.922l-25.745,44.593h51.491L437.592,332.922L437.592,332.922z"/>
			<path style="fill:#ADECFE;" d="M437.592,332.922l-25.745,44.593l-25.746-44.593L437.592,332.922L437.592,332.922z"/>
			<path style="fill:#B7EFFF;" d="M489.083,332.922l-25.745,44.593h51.491L489.083,332.922L489.083,332.922z"/>
			<path style="fill:#B1EEFF;" d="M489.083,332.922l-25.745,44.593l-25.746-44.593L489.083,332.922L489.083,332.922z"/>
			<path style="fill:#BDF1FF;" d="M540.574,332.922l-25.746,44.593h51.491L540.574,332.922L540.574,332.922z"/>
			<path style="fill:#BDF1FF;" d="M540.574,332.922l-25.746,44.593l-25.745-44.593L540.574,332.922L540.574,332.922z"/>
			<path style="fill:#BDF1FF;" d="M592.065,332.922l-25.745,44.593h51.491L592.065,332.922L592.065,332.922z"/>
			<path style="fill:#BDF1FF;" d="M592.065,332.922l-25.745,44.593l-25.745-44.593L592.065,332.922L592.065,332.922z"/>
		</g>
	</g>
</g>
</svg>
