<?xml version="1.0" encoding="utf-8"?>
<!-- Generator: Adobe Illustrator 27.5.0, SVG Export Plug-In . SVG Version: 6.00 Build 0)  -->
<svg version="1.1" xmlns="http://www.w3.org/2000/svg" xmlns:xlink="http://www.w3.org/1999/xlink" x="0px" y="0px"
	 viewBox="0 0 750 500" style="enable-background:new 0 0 750 500;" xml:space="preserve">
<g id="BACKGROUND">
	<rect style="fill:#2570B0;" width="750" height="500"/>
	<g>
		<defs>
			<rect id="SVGID_1_" width="750" height="500"/>
		</defs>
		<clipPath id="SVGID_00000017479849014934887250000006928822399609869484_">
			<use xlink:href="#SVGID_1_"  style="overflow:visible;"/>
		</clipPath>
		<g style="opacity:0.4;clip-path:url(#SVGID_00000017479849014934887250000006928822399609869484_);">
			<g>
				<path style="fill:#0E4E7E;" d="M407.131,141.09c1.542-1.543,4.044-1.544,5.587-0.002c1.543,1.542,1.544,4.044,0.002,5.587
					c-1.542,1.543-4.044,1.544-5.587,0.002C405.589,145.135,405.589,142.634,407.131,141.09z"/>
				<path style="fill:#0E4E7E;" d="M388.585,122.559c1.542-1.544,4.044-1.544,5.587-0.002c1.544,1.542,1.544,4.044,0.002,5.587
					c-1.542,1.543-4.044,1.544-5.587,0.002C387.043,126.603,387.042,124.102,388.585,122.559z"/>
				<path style="fill:#0E4E7E;" d="M370.039,104.027c1.542-1.543,4.044-1.544,5.587-0.002c1.543,1.542,1.544,4.044,0.002,5.587
					c-1.542,1.543-4.044,1.544-5.587,0.002C368.497,108.072,368.496,105.57,370.039,104.027z"/>
				<path style="fill:#0E4E7E;" d="M351.493,85.495c1.542-1.543,4.044-1.544,5.587-0.002c1.543,1.542,1.544,4.044,0.002,5.587
					c-1.542,1.543-4.044,1.544-5.587,0.002C349.952,89.54,349.951,87.038,351.493,85.495z"/>
				<path style="fill:#0E4E7E;" d="M332.947,66.963c1.542-1.543,4.044-1.544,5.587-0.002c1.543,1.542,1.544,4.044,0.002,5.587
					c-1.542,1.543-4.044,1.544-5.587,0.002C331.406,71.008,331.405,68.507,332.947,66.963z"/>
				<path style="fill:#0E4E7E;" d="M314.401,48.431c1.542-1.543,4.044-1.544,5.587-0.002c1.543,1.542,1.544,4.044,0.002,5.587
					c-1.542,1.543-4.044,1.544-5.587,0.002C312.86,52.476,312.859,49.975,314.401,48.431z"/>
				<path style="fill:#0E4E7E;" d="M295.855,29.899c1.542-1.543,4.044-1.544,5.587-0.002c1.543,1.542,1.544,4.044,0.002,5.587
					c-1.542,1.544-4.044,1.544-5.587,0.002C294.314,33.944,294.313,31.443,295.855,29.899z"/>
				<path style="fill:#0E4E7E;" d="M277.309,11.368c1.542-1.544,4.044-1.544,5.587-0.002c1.543,1.542,1.544,4.044,0.002,5.587
					c-1.542,1.543-4.044,1.544-5.587,0.002C275.768,15.412,275.767,12.911,277.309,11.368z"/>
				<path style="fill:#0E4E7E;" d="M258.763-7.164c1.542-1.543,4.044-1.544,5.587-0.002c1.543,1.542,1.544,4.044,0.002,5.587
					c-1.542,1.543-4.044,1.544-5.587,0.002C257.222-3.119,257.221-5.621,258.763-7.164z"/>
				<path style="fill:#0E4E7E;" d="M240.217-25.696c1.542-1.543,4.044-1.544,5.587-0.002c1.543,1.542,1.544,4.044,0.002,5.587
					c-1.542,1.544-4.044,1.544-5.587,0.002C238.676-21.651,238.675-24.153,240.217-25.696z"/>
				<path style="fill:#0E4E7E;" d="M221.671-44.228c1.542-1.543,4.044-1.544,5.587-0.002c1.543,1.542,1.544,4.044,0.002,5.587
					c-1.542,1.543-4.044,1.544-5.587,0.002C220.13-40.183,220.129-42.685,221.671-44.228z"/>
			</g>
			<g>
				<path style="fill:#0E4E7E;" d="M420.331,127.88c1.542-1.543,4.044-1.544,5.587-0.002c1.544,1.542,1.544,4.044,0.002,5.587
					c-1.542,1.544-4.044,1.544-5.587,0.002C418.79,131.924,418.789,129.423,420.331,127.88z"/>
				<path style="fill:#0E4E7E;" d="M401.785,109.348c1.542-1.544,4.044-1.544,5.587-0.002c1.543,1.542,1.544,4.044,0.002,5.587
					c-1.542,1.543-4.044,1.544-5.587,0.002C400.244,113.393,400.243,110.891,401.785,109.348z"/>
				<path style="fill:#0E4E7E;" d="M383.24,90.816c1.542-1.543,4.044-1.544,5.587-0.002c1.543,1.542,1.544,4.044,0.002,5.587
					c-1.542,1.543-4.044,1.544-5.587,0.002C381.698,94.861,381.697,92.359,383.24,90.816z"/>
				<path style="fill:#0E4E7E;" d="M364.694,72.284c1.542-1.543,4.044-1.544,5.587-0.002c1.544,1.542,1.544,4.044,0.002,5.587
					c-1.542,1.543-4.044,1.544-5.587,0.002C363.152,76.329,363.151,73.827,364.694,72.284z"/>
				<path style="fill:#0E4E7E;" d="M346.148,53.752c1.542-1.543,4.044-1.544,5.587-0.002c1.543,1.542,1.544,4.044,0.002,5.587
					c-1.542,1.543-4.044,1.544-5.587,0.002C344.606,57.797,344.605,55.296,346.148,53.752z"/>
				<path style="fill:#0E4E7E;" d="M327.602,35.22c1.542-1.543,4.044-1.544,5.587-0.002c1.544,1.542,1.544,4.044,0.002,5.587
					c-1.542,1.543-4.044,1.544-5.587,0.002C326.06,39.265,326.059,36.764,327.602,35.22z"/>
				<path style="fill:#0E4E7E;" d="M309.056,16.689c1.542-1.544,4.044-1.544,5.587-0.002c1.543,1.542,1.544,4.044,0.002,5.587
					c-1.542,1.543-4.044,1.544-5.587,0.002C307.514,20.733,307.513,18.232,309.056,16.689z"/>
				<path style="fill:#0E4E7E;" d="M290.51-1.843c1.542-1.543,4.044-1.544,5.587-0.002c1.543,1.542,1.544,4.044,0.002,5.587
					c-1.542,1.543-4.044,1.544-5.587,0.002C288.968,2.202,288.967-0.3,290.51-1.843z"/>
				<path style="fill:#0E4E7E;" d="M271.964-20.375c1.542-1.543,4.044-1.544,5.587-0.002c1.544,1.542,1.544,4.044,0.002,5.587
					c-1.542,1.543-4.044,1.544-5.587,0.002C270.422-16.33,270.422-18.832,271.964-20.375z"/>
				<path style="fill:#0E4E7E;" d="M253.418-38.907c1.542-1.544,4.044-1.544,5.587-0.002c1.543,1.542,1.544,4.044,0.002,5.587
					c-1.542,1.543-4.044,1.544-5.587,0.002C251.876-34.862,251.875-37.363,253.418-38.907z"/>
				<path style="fill:#0E4E7E;" d="M234.872-57.439c1.542-1.543,4.044-1.544,5.587-0.002c1.543,1.542,1.544,4.044,0.002,5.587
					c-1.542,1.543-4.044,1.544-5.587,0.002C233.33-53.394,233.33-55.895,234.872-57.439z"/>
			</g>
			<g>
				<path style="fill:#0E4E7E;" d="M433.532,114.669c1.542-1.544,4.044-1.544,5.587-0.002c1.543,1.542,1.544,4.044,0.002,5.587
					c-1.542,1.543-4.044,1.544-5.587,0.002C431.991,118.714,431.99,116.212,433.532,114.669z"/>
				<path style="fill:#0E4E7E;" d="M414.986,96.137c1.542-1.543,4.044-1.544,5.587-0.002c1.543,1.542,1.544,4.044,0.002,5.587
					c-1.542,1.543-4.044,1.544-5.587,0.002C413.445,100.182,413.444,97.68,414.986,96.137z"/>
				<path style="fill:#0E4E7E;" d="M396.44,77.605c1.542-1.543,4.044-1.544,5.587-0.002c1.543,1.542,1.544,4.044,0.002,5.587
					c-1.542,1.543-4.044,1.544-5.587,0.002C394.899,81.65,394.898,79.148,396.44,77.605z"/>
				<path style="fill:#0E4E7E;" d="M377.894,59.073c1.542-1.543,4.044-1.544,5.587-0.002c1.543,1.542,1.544,4.044,0.002,5.587
					c-1.542,1.543-4.044,1.544-5.587,0.002C376.353,63.118,376.352,60.617,377.894,59.073z"/>
				<path style="fill:#0E4E7E;" d="M359.348,40.541c1.542-1.543,4.044-1.544,5.587-0.002c1.543,1.542,1.544,4.044,0.002,5.587
					c-1.542,1.543-4.044,1.544-5.587,0.002C357.807,44.586,357.806,42.085,359.348,40.541z"/>
				<path style="fill:#0E4E7E;" d="M340.802,22.01c1.542-1.543,4.044-1.544,5.587-0.002c1.543,1.542,1.544,4.044,0.002,5.587
					c-1.542,1.544-4.044,1.544-5.587,0.002C339.261,26.054,339.26,23.553,340.802,22.01z"/>
				<path style="fill:#0E4E7E;" d="M322.256,3.478c1.542-1.543,4.044-1.544,5.587-0.002c1.543,1.542,1.544,4.044,0.002,5.587
					c-1.542,1.543-4.044,1.544-5.587,0.002C320.715,7.523,320.714,5.021,322.256,3.478z"/>
				<path style="fill:#0E4E7E;" d="M303.71-15.054c1.542-1.543,4.044-1.544,5.587-0.002c1.544,1.542,1.544,4.044,0.002,5.587
					c-1.542,1.543-4.044,1.544-5.587,0.002C302.169-11.009,302.168-13.511,303.71-15.054z"/>
				<path style="fill:#0E4E7E;" d="M285.164-33.586c1.542-1.543,4.044-1.544,5.587-0.002c1.543,1.542,1.544,4.044,0.002,5.587
					c-1.542,1.543-4.044,1.544-5.587,0.002C283.623-29.541,283.622-32.042,285.164-33.586z"/>
				<path style="fill:#0E4E7E;" d="M266.619-52.118c1.542-1.544,4.044-1.544,5.587-0.002c1.543,1.542,1.544,4.044,0.002,5.587
					c-1.542,1.543-4.044,1.544-5.587,0.002C265.077-48.073,265.076-50.574,266.619-52.118z"/>
				<path style="fill:#0E4E7E;" d="M248.073-70.65c1.542-1.543,4.044-1.544,5.587-0.002c1.543,1.542,1.544,4.044,0.002,5.587
					c-1.542,1.543-4.044,1.544-5.587,0.002C246.531-66.605,246.53-69.106,248.073-70.65z"/>
			</g>
			<g>
				<path style="fill:#0E4E7E;" d="M446.733,101.458c1.542-1.543,4.044-1.544,5.587-0.002c1.543,1.542,1.544,4.044,0.002,5.587
					c-1.542,1.543-4.044,1.544-5.587,0.002C445.192,105.503,445.191,103.001,446.733,101.458z"/>
				<path style="fill:#0E4E7E;" d="M428.187,82.926c1.542-1.543,4.044-1.544,5.587-0.002c1.543,1.542,1.544,4.044,0.002,5.587
					c-1.542,1.543-4.044,1.544-5.587,0.002C426.646,86.971,426.645,84.469,428.187,82.926z"/>
				<path style="fill:#0E4E7E;" d="M409.641,64.394c1.542-1.544,4.044-1.544,5.587-0.002c1.544,1.542,1.544,4.044,0.002,5.587
					c-1.542,1.543-4.044,1.544-5.587,0.002C408.1,68.439,408.099,65.938,409.641,64.394z"/>
				<path style="fill:#0E4E7E;" d="M391.095,45.862c1.542-1.543,4.044-1.544,5.587-0.002c1.543,1.542,1.544,4.044,0.002,5.587
					c-1.542,1.543-4.044,1.544-5.587,0.002C389.554,49.907,389.553,47.406,391.095,45.862z"/>
				<path style="fill:#0E4E7E;" d="M372.549,27.331c1.542-1.543,4.044-1.544,5.587-0.002c1.543,1.542,1.544,4.044,0.002,5.587
					c-1.542,1.543-4.044,1.544-5.587,0.002C371.008,31.375,371.007,28.874,372.549,27.331z"/>
				<path style="fill:#0E4E7E;" d="M354.003,8.799c1.542-1.544,4.044-1.544,5.587-0.002c1.544,1.542,1.544,4.044,0.002,5.587
					c-1.542,1.543-4.044,1.544-5.587,0.002C352.462,12.844,352.461,10.342,354.003,8.799z"/>
				<path style="fill:#0E4E7E;" d="M335.457-9.733c1.542-1.543,4.044-1.544,5.587-0.002c1.543,1.542,1.544,4.044,0.002,5.587
					c-1.542,1.543-4.044,1.544-5.587,0.002C333.916-5.688,333.915-8.19,335.457-9.733z"/>
				<path style="fill:#0E4E7E;" d="M316.911-28.265c1.542-1.543,4.044-1.544,5.587-0.002c1.543,1.542,1.544,4.044,0.002,5.587
					c-1.542,1.544-4.044,1.544-5.587,0.002C315.37-24.22,315.369-26.722,316.911-28.265z"/>
				<path style="fill:#0E4E7E;" d="M298.365-46.797c1.542-1.543,4.044-1.544,5.587-0.002c1.543,1.542,1.544,4.044,0.002,5.587
					c-1.542,1.543-4.044,1.544-5.587,0.002C296.824-42.752,296.823-45.253,298.365-46.797z"/>
				<path style="fill:#0E4E7E;" d="M279.819-65.329c1.542-1.543,4.044-1.544,5.587-0.002c1.543,1.542,1.544,4.044,0.002,5.587
					c-1.542,1.543-4.044,1.544-5.587,0.002C278.278-61.284,278.277-63.785,279.819-65.329z"/>
				<path style="fill:#0E4E7E;" d="M261.273-83.86c1.542-1.543,4.044-1.544,5.587-0.002c1.544,1.542,1.544,4.044,0.002,5.587
					c-1.542,1.543-4.044,1.544-5.587,0.002C259.732-79.816,259.731-82.317,261.273-83.86z"/>
			</g>
			<g>
				<path style="fill:#0E4E7E;" d="M459.934,88.247c1.542-1.543,4.044-1.544,5.587-0.002c1.544,1.542,1.544,4.044,0.002,5.587
					c-1.542,1.543-4.044,1.544-5.587,0.002C458.392,92.292,458.391,89.791,459.934,88.247z"/>
				<path style="fill:#0E4E7E;" d="M441.388,69.715c1.542-1.543,4.044-1.544,5.587-0.002c1.543,1.542,1.544,4.044,0.002,5.587
					c-1.542,1.543-4.044,1.544-5.587,0.002C439.846,73.76,439.845,71.259,441.388,69.715z"/>
				<path style="fill:#0E4E7E;" d="M422.842,51.183c1.542-1.543,4.044-1.544,5.587-0.002c1.543,1.542,1.544,4.044,0.002,5.587
					c-1.542,1.543-4.044,1.544-5.587,0.002C421.3,55.228,421.3,52.727,422.842,51.183z"/>
				<path style="fill:#0E4E7E;" d="M404.296,32.652c1.542-1.543,4.044-1.544,5.587-0.002c1.543,1.542,1.544,4.044,0.002,5.587
					c-1.542,1.543-4.044,1.544-5.587,0.002C402.755,36.696,402.754,34.195,404.296,32.652z"/>
				<path style="fill:#0E4E7E;" d="M385.75,14.12c1.542-1.543,4.044-1.544,5.587-0.002c1.543,1.542,1.544,4.044,0.002,5.587
					c-1.542,1.543-4.044,1.544-5.587,0.002C384.209,18.165,384.208,15.663,385.75,14.12z"/>
				<path style="fill:#0E4E7E;" d="M367.204-4.412c1.542-1.543,4.044-1.544,5.587-0.002c1.543,1.542,1.544,4.044,0.002,5.587
					c-1.542,1.543-4.044,1.544-5.587,0.002C365.663-0.367,365.662-2.869,367.204-4.412z"/>
				<path style="fill:#0E4E7E;" d="M348.658-22.944c1.542-1.543,4.044-1.544,5.587-0.002c1.543,1.542,1.544,4.044,0.002,5.587
					c-1.542,1.543-4.044,1.544-5.587,0.002C347.117-18.899,347.116-21.4,348.658-22.944z"/>
				<path style="fill:#0E4E7E;" d="M330.112-41.476c1.542-1.543,4.044-1.544,5.587-0.002c1.543,1.542,1.544,4.044,0.002,5.587
					c-1.542,1.543-4.044,1.544-5.587,0.002C328.571-37.431,328.57-39.932,330.112-41.476z"/>
				<path style="fill:#0E4E7E;" d="M311.566-60.008c1.542-1.543,4.044-1.544,5.587-0.002c1.543,1.542,1.544,4.044,0.002,5.587
					c-1.542,1.543-4.044,1.544-5.587,0.002C310.025-55.963,310.024-58.464,311.566-60.008z"/>
				<path style="fill:#0E4E7E;" d="M293.02-78.539c1.542-1.543,4.044-1.544,5.587-0.002c1.544,1.542,1.544,4.044,0.002,5.587
					c-1.542,1.543-4.044,1.544-5.587,0.002C291.479-74.495,291.478-76.996,293.02-78.539z"/>
				<path style="fill:#0E4E7E;" d="M274.474-97.071c1.542-1.544,4.044-1.544,5.587-0.002c1.543,1.542,1.544,4.044,0.002,5.587
					c-1.542,1.543-4.044,1.544-5.587,0.002C272.933-93.026,272.932-95.528,274.474-97.071z"/>
			</g>
			<g>
				<path style="fill:#0E4E7E;" d="M473.134,75.036c1.542-1.543,4.044-1.544,5.587-0.002c1.543,1.542,1.544,4.044,0.002,5.587
					c-1.542,1.544-4.044,1.544-5.587,0.002C471.593,79.081,471.592,76.58,473.134,75.036z"/>
				<path style="fill:#0E4E7E;" d="M454.589,56.505c1.542-1.544,4.044-1.544,5.587-0.002c1.543,1.542,1.544,4.044,0.002,5.587
					c-1.542,1.543-4.044,1.544-5.587,0.002C453.047,60.549,453.046,58.048,454.589,56.505z"/>
				<path style="fill:#0E4E7E;" d="M436.043,37.973c1.542-1.543,4.044-1.544,5.587-0.002c1.544,1.542,1.544,4.044,0.002,5.587
					c-1.542,1.543-4.044,1.544-5.587,0.002C434.501,42.018,434.5,39.516,436.043,37.973z"/>
				<path style="fill:#0E4E7E;" d="M417.497,19.441c1.542-1.543,4.044-1.544,5.587-0.002c1.543,1.542,1.544,4.044,0.002,5.587
					c-1.542,1.544-4.044,1.544-5.587,0.002C415.955,23.486,415.954,20.984,417.497,19.441z"/>
				<path style="fill:#0E4E7E;" d="M398.951,0.909c1.542-1.543,4.044-1.544,5.587-0.002c1.543,1.542,1.544,4.044,0.002,5.587
					c-1.542,1.543-4.044,1.544-5.587,0.002C397.409,4.954,397.408,2.452,398.951,0.909z"/>
				<path style="fill:#0E4E7E;" d="M380.405-17.623c1.542-1.543,4.044-1.544,5.587-0.002c1.543,1.542,1.544,4.044,0.002,5.587
					c-1.542,1.543-4.044,1.544-5.587,0.002C378.863-13.578,378.862-16.079,380.405-17.623z"/>
				<path style="fill:#0E4E7E;" d="M361.859-36.155c1.542-1.543,4.044-1.544,5.587-0.002c1.543,1.542,1.544,4.044,0.002,5.587
					c-1.542,1.543-4.044,1.544-5.587,0.002C360.317-32.11,360.316-34.611,361.859-36.155z"/>
				<path style="fill:#0E4E7E;" d="M343.313-54.687c1.542-1.543,4.044-1.544,5.587-0.002c1.544,1.542,1.544,4.044,0.002,5.587
					c-1.542,1.543-4.044,1.544-5.587,0.002C341.771-50.642,341.771-53.143,343.313-54.687z"/>
				<path style="fill:#0E4E7E;" d="M324.767-73.218c1.542-1.543,4.044-1.544,5.587-0.002c1.543,1.542,1.544,4.044,0.002,5.587
					c-1.542,1.543-4.044,1.544-5.587,0.002C323.225-69.174,323.224-71.675,324.767-73.218z"/>
				<path style="fill:#0E4E7E;" d="M306.221-91.75c1.542-1.543,4.044-1.544,5.587-0.002c1.543,1.542,1.544,4.044,0.002,5.587
					c-1.542,1.543-4.044,1.544-5.587,0.002C304.68-87.705,304.679-90.207,306.221-91.75z"/>
				<path style="fill:#0E4E7E;" d="M287.675-110.282c1.542-1.543,4.044-1.544,5.587-0.002c1.543,1.542,1.544,4.044,0.002,5.587
					c-1.542,1.543-4.044,1.544-5.587,0.002C286.134-106.237,286.133-108.739,287.675-110.282z"/>
			</g>
			<g>
				<path style="fill:#0E4E7E;" d="M486.335,61.826c1.542-1.543,4.044-1.544,5.587-0.002c1.543,1.542,1.544,4.044,0.002,5.587
					c-1.542,1.543-4.044,1.544-5.587,0.002C484.794,65.87,484.793,63.369,486.335,61.826z"/>
				<path style="fill:#0E4E7E;" d="M467.789,43.294c1.542-1.543,4.044-1.544,5.587-0.002c1.543,1.542,1.544,4.044,0.002,5.587
					c-1.542,1.543-4.044,1.544-5.587,0.002C466.248,47.339,466.247,44.837,467.789,43.294z"/>
				<path style="fill:#0E4E7E;" d="M449.243,24.762c1.542-1.543,4.044-1.544,5.587-0.002c1.543,1.542,1.544,4.044,0.002,5.587
					c-1.542,1.543-4.044,1.544-5.587,0.002C447.702,28.807,447.701,26.305,449.243,24.762z"/>
				<path style="fill:#0E4E7E;" d="M430.697,6.23c1.542-1.543,4.044-1.544,5.587-0.002c1.543,1.542,1.544,4.044,0.002,5.587
					c-1.542,1.543-4.044,1.544-5.587,0.002C429.156,10.275,429.155,7.773,430.697,6.23z"/>
				<path style="fill:#0E4E7E;" d="M412.151-12.302c1.542-1.543,4.044-1.544,5.587-0.002c1.543,1.542,1.544,4.044,0.002,5.587
					c-1.542,1.543-4.044,1.544-5.587,0.002C410.61-8.257,410.609-10.758,412.151-12.302z"/>
				<path style="fill:#0E4E7E;" d="M393.605-30.834c1.542-1.543,4.044-1.544,5.587-0.002c1.543,1.542,1.544,4.044,0.002,5.587
					c-1.542,1.544-4.044,1.544-5.587,0.002C392.064-26.789,392.063-29.29,393.605-30.834z"/>
				<path style="fill:#0E4E7E;" d="M375.059-49.366c1.542-1.543,4.044-1.544,5.587-0.002c1.544,1.542,1.544,4.044,0.002,5.587
					c-1.542,1.543-4.044,1.544-5.587,0.002C373.518-45.321,373.517-47.822,375.059-49.366z"/>
				<path style="fill:#0E4E7E;" d="M356.513-67.897c1.542-1.543,4.044-1.544,5.587-0.002c1.543,1.542,1.544,4.044,0.002,5.587
					c-1.542,1.543-4.044,1.544-5.587,0.002C354.972-63.853,354.971-66.354,356.513-67.897z"/>
				<path style="fill:#0E4E7E;" d="M337.968-86.429c1.542-1.543,4.044-1.544,5.587-0.002c1.543,1.542,1.544,4.044,0.002,5.587
					c-1.542,1.544-4.044,1.544-5.587,0.002C336.426-82.384,336.425-84.886,337.968-86.429z"/>
				<path style="fill:#0E4E7E;" d="M319.422-104.961c1.542-1.544,4.044-1.544,5.587-0.002c1.543,1.542,1.544,4.044,0.002,5.587
					c-1.542,1.543-4.044,1.544-5.587,0.002C317.88-100.916,317.879-103.418,319.422-104.961z"/>
				<path style="fill:#0E4E7E;" d="M300.876-123.493c1.542-1.543,4.044-1.544,5.587-0.002c1.543,1.542,1.544,4.044,0.002,5.587
					c-1.542,1.543-4.044,1.544-5.587,0.002C299.334-119.448,299.333-121.949,300.876-123.493z"/>
			</g>
			<g>
				<path style="fill:#0E4E7E;" d="M499.536,48.615c1.542-1.543,4.044-1.544,5.587-0.002c1.543,1.542,1.544,4.044,0.002,5.587
					c-1.542,1.543-4.044,1.544-5.587,0.002C497.995,52.66,497.994,50.158,499.536,48.615z"/>
				<path style="fill:#0E4E7E;" d="M480.99,30.083c1.542-1.543,4.044-1.544,5.587-0.002c1.543,1.542,1.544,4.044,0.002,5.587
					c-1.542,1.543-4.044,1.544-5.587,0.002C479.449,34.128,479.448,31.626,480.99,30.083z"/>
				<path style="fill:#0E4E7E;" d="M462.444,11.551c1.542-1.543,4.044-1.544,5.587-0.002c1.543,1.542,1.544,4.044,0.002,5.587
					c-1.542,1.543-4.044,1.544-5.587,0.002C460.903,15.596,460.902,13.094,462.444,11.551z"/>
				<path style="fill:#0E4E7E;" d="M443.898-6.981c1.542-1.543,4.044-1.544,5.587-0.002c1.543,1.542,1.544,4.044,0.002,5.587
					c-1.542,1.543-4.044,1.544-5.587,0.002C442.357-2.936,442.356-5.437,443.898-6.981z"/>
				<path style="fill:#0E4E7E;" d="M425.352-25.513c1.542-1.543,4.044-1.544,5.587-0.002c1.544,1.542,1.544,4.044,0.002,5.587
					c-1.542,1.543-4.044,1.544-5.587,0.002C423.811-21.468,423.81-23.969,425.352-25.513z"/>
				<path style="fill:#0E4E7E;" d="M406.806-44.044c1.542-1.544,4.044-1.544,5.587-0.002c1.543,1.542,1.544,4.044,0.002,5.587
					s-4.044,1.544-5.587,0.002C405.265-40,405.264-42.501,406.806-44.044z"/>
				<path style="fill:#0E4E7E;" d="M388.26-62.576c1.542-1.543,4.044-1.544,5.587-0.002c1.543,1.542,1.544,4.044,0.002,5.587
					c-1.542,1.543-4.044,1.544-5.587,0.002C386.719-58.532,386.718-61.033,388.26-62.576z"/>
				<path style="fill:#0E4E7E;" d="M369.714-81.108c1.542-1.543,4.044-1.544,5.587-0.002c1.543,1.542,1.544,4.044,0.002,5.587
					c-1.542,1.544-4.044,1.544-5.587,0.002C368.173-77.063,368.172-79.565,369.714-81.108z"/>
				<path style="fill:#0E4E7E;" d="M351.168-99.64c1.542-1.544,4.044-1.544,5.587-0.002c1.543,1.542,1.544,4.044,0.002,5.587
					c-1.542,1.543-4.044,1.544-5.587,0.002C349.627-95.595,349.626-98.097,351.168-99.64z"/>
				<path style="fill:#0E4E7E;" d="M332.622-118.172c1.542-1.543,4.044-1.544,5.587-0.002c1.544,1.542,1.544,4.044,0.002,5.587
					c-1.542,1.543-4.044,1.544-5.587,0.002C331.081-114.127,331.08-116.628,332.622-118.172z"/>
				<path style="fill:#0E4E7E;" d="M314.076-136.704c1.542-1.543,4.044-1.544,5.587-0.002c1.543,1.542,1.544,4.044,0.002,5.587
					c-1.542,1.544-4.044,1.544-5.587,0.002C312.535-132.659,312.534-135.16,314.076-136.704z"/>
			</g>
		</g>
		<g style="opacity:0.4;clip-path:url(#SVGID_00000017479849014934887250000006928822399609869484_);">
			<g>
				<path style="fill:#0E4E7E;" d="M380.69,621.402c1.312-1.313,3.441-1.314,4.754-0.002c1.313,1.312,1.314,3.441,0.002,4.754
					c-1.312,1.313-3.441,1.314-4.754,0.002C379.378,624.844,379.378,622.715,380.69,621.402z"/>
				<path style="fill:#0E4E7E;" d="M364.909,605.633c1.312-1.313,3.441-1.314,4.754-0.002c1.313,1.312,1.314,3.441,0.002,4.754
					c-1.312,1.313-3.441,1.314-4.754,0.002C363.597,609.075,363.596,606.946,364.909,605.633z"/>
				<path style="fill:#0E4E7E;" d="M349.128,589.864c1.312-1.313,3.441-1.314,4.754-0.002c1.313,1.312,1.314,3.441,0.002,4.754
					c-1.312,1.313-3.441,1.314-4.754,0.002C347.816,593.305,347.815,591.177,349.128,589.864z"/>
				<path style="fill:#0E4E7E;" d="M333.347,574.094c1.312-1.313,3.441-1.314,4.754-0.002c1.313,1.312,1.314,3.441,0.002,4.754
					c-1.312,1.313-3.441,1.314-4.754,0.002C332.035,577.536,332.034,575.408,333.347,574.094z"/>
				<path style="fill:#0E4E7E;" d="M317.565,558.325c1.312-1.313,3.441-1.314,4.754-0.002c1.313,1.312,1.314,3.441,0.002,4.754
					c-1.312,1.313-3.441,1.314-4.754,0.002C316.254,561.767,316.253,559.639,317.565,558.325z"/>
				<circle style="fill:#0E4E7E;" cx="304.162" cy="544.932" r="3.362"/>
				<path style="fill:#0E4E7E;" d="M286.003,526.787c1.312-1.313,3.441-1.314,4.754-0.002c1.313,1.312,1.314,3.441,0.002,4.754
					c-1.312,1.313-3.441,1.314-4.754,0.002C284.692,530.229,284.691,528.1,286.003,526.787z"/>
				<path style="fill:#0E4E7E;" d="M270.222,511.018c1.312-1.313,3.441-1.314,4.754-0.002c1.313,1.312,1.314,3.441,0.002,4.754
					c-1.312,1.313-3.441,1.314-4.754,0.002C268.91,514.46,268.91,512.331,270.222,511.018z"/>
				<path style="fill:#0E4E7E;" d="M254.441,495.249c1.312-1.313,3.441-1.314,4.754-0.002c1.313,1.312,1.314,3.441,0.002,4.754
					c-1.312,1.313-3.441,1.314-4.754,0.002C253.129,498.691,253.128,496.562,254.441,495.249z"/>
				<path style="fill:#0E4E7E;" d="M238.66,479.48c1.312-1.313,3.441-1.314,4.754-0.002c1.313,1.312,1.314,3.441,0.002,4.754
					c-1.312,1.313-3.441,1.314-4.754,0.002C237.348,482.922,237.347,480.793,238.66,479.48z"/>
				<path style="fill:#0E4E7E;" d="M222.878,463.711c1.312-1.313,3.441-1.314,4.754-0.002c1.313,1.312,1.314,3.441,0.002,4.754
					c-1.312,1.313-3.441,1.314-4.754,0.002C221.567,467.152,221.566,465.024,222.878,463.711z"/>
			</g>
			<g>
				<path style="fill:#0E4E7E;" d="M391.923,610.161c1.312-1.313,3.441-1.314,4.754-0.002c1.313,1.312,1.314,3.441,0.002,4.754
					c-1.312,1.313-3.441,1.314-4.754,0.002C390.611,613.602,390.611,611.474,391.923,610.161z"/>
				<path style="fill:#0E4E7E;" d="M376.142,594.391c1.312-1.313,3.441-1.314,4.754-0.002c1.313,1.312,1.314,3.441,0.002,4.754
					c-1.312,1.313-3.441,1.314-4.754,0.002C374.83,597.833,374.829,595.705,376.142,594.391z"/>
				<path style="fill:#0E4E7E;" d="M360.361,578.622c1.312-1.313,3.441-1.314,4.754-0.002c1.313,1.312,1.314,3.441,0.002,4.754
					c-1.312,1.313-3.441,1.314-4.754,0.002C359.049,582.064,359.048,579.936,360.361,578.622z"/>
				<path style="fill:#0E4E7E;" d="M344.579,562.853c1.312-1.313,3.441-1.314,4.754-0.002c1.313,1.312,1.314,3.441,0.002,4.754
					c-1.312,1.313-3.441,1.314-4.754,0.002C343.268,566.295,343.267,564.166,344.579,562.853z"/>
				<path style="fill:#0E4E7E;" d="M328.798,547.084c1.312-1.313,3.441-1.314,4.754-0.002c1.313,1.312,1.314,3.441,0.002,4.754
					c-1.312,1.313-3.441,1.314-4.754,0.002C327.487,550.526,327.486,548.397,328.798,547.084z"/>
				<path style="fill:#0E4E7E;" d="M313.017,531.315c1.312-1.313,3.441-1.314,4.754-0.002c1.313,1.312,1.314,3.441,0.002,4.754
					c-1.312,1.313-3.441,1.314-4.754,0.002C311.706,534.757,311.705,532.628,313.017,531.315z"/>
				<path style="fill:#0E4E7E;" d="M297.236,515.546c1.312-1.313,3.441-1.314,4.754-0.002c1.313,1.312,1.314,3.441,0.002,4.754
					c-1.312,1.313-3.441,1.314-4.754,0.002C295.924,518.988,295.924,516.859,297.236,515.546z"/>
				<path style="fill:#0E4E7E;" d="M281.455,499.777c1.312-1.313,3.441-1.314,4.754-0.002c1.313,1.312,1.314,3.441,0.002,4.754
					c-1.312,1.313-3.441,1.314-4.754,0.002C280.143,503.218,280.142,501.09,281.455,499.777z"/>
				<path style="fill:#0E4E7E;" d="M265.674,484.008c1.312-1.313,3.441-1.314,4.754-0.002c1.313,1.312,1.314,3.441,0.002,4.754
					c-1.312,1.313-3.441,1.314-4.754,0.002C264.362,487.449,264.361,485.321,265.674,484.008z"/>
				<circle style="fill:#0E4E7E;" cx="252.27" cy="470.615" r="3.362"/>
				<path style="fill:#0E4E7E;" d="M234.111,452.469c1.312-1.313,3.441-1.314,4.754-0.002c1.313,1.312,1.314,3.441,0.002,4.754
					c-1.312,1.313-3.441,1.314-4.754,0.002C232.8,455.911,232.799,453.783,234.111,452.469z"/>
			</g>
			<g>
				<path style="fill:#0E4E7E;" d="M403.156,598.919c1.312-1.313,3.441-1.314,4.754-0.002c1.313,1.312,1.314,3.441,0.002,4.754
					c-1.312,1.313-3.441,1.314-4.754,0.002C401.844,602.361,401.843,600.232,403.156,598.919z"/>
				<path style="fill:#0E4E7E;" d="M387.374,583.15c1.312-1.313,3.441-1.314,4.754-0.002c1.313,1.312,1.314,3.441,0.002,4.754
					c-1.312,1.313-3.441,1.314-4.754,0.002C386.063,586.592,386.062,584.463,387.374,583.15z"/>
				<path style="fill:#0E4E7E;" d="M371.593,567.381c1.312-1.313,3.441-1.314,4.754-0.002c1.313,1.312,1.314,3.441,0.002,4.754
					c-1.312,1.313-3.441,1.314-4.754,0.002C370.282,570.823,370.281,568.694,371.593,567.381z"/>
				<path style="fill:#0E4E7E;" d="M355.812,551.612c1.312-1.313,3.441-1.314,4.754-0.002c1.313,1.312,1.314,3.441,0.002,4.754
					c-1.312,1.313-3.441,1.314-4.754,0.002C354.501,555.054,354.5,552.925,355.812,551.612z"/>
				<path style="fill:#0E4E7E;" d="M340.031,535.843c1.312-1.313,3.441-1.314,4.754-0.002c1.313,1.312,1.314,3.441,0.002,4.754
					c-1.312,1.313-3.441,1.314-4.754,0.002C338.719,539.284,338.719,537.156,340.031,535.843z"/>
				<path style="fill:#0E4E7E;" d="M324.25,520.073c1.312-1.313,3.441-1.314,4.754-0.002c1.313,1.312,1.314,3.441,0.002,4.754
					c-1.312,1.313-3.441,1.314-4.754,0.002C322.938,523.515,322.938,521.387,324.25,520.073z"/>
				<path style="fill:#0E4E7E;" d="M308.469,504.304c1.312-1.313,3.441-1.314,4.754-0.002c1.313,1.312,1.314,3.441,0.002,4.754
					c-1.312,1.313-3.441,1.314-4.754,0.002C307.157,507.746,307.156,505.618,308.469,504.304z"/>
				<path style="fill:#0E4E7E;" d="M292.688,488.535c1.312-1.313,3.441-1.314,4.754-0.002c1.313,1.312,1.314,3.441,0.002,4.754
					c-1.312,1.313-3.441,1.314-4.754,0.002C291.376,491.977,291.375,489.849,292.688,488.535z"/>
				<path style="fill:#0E4E7E;" d="M276.906,472.766c1.312-1.313,3.441-1.314,4.754-0.002c1.313,1.312,1.314,3.441,0.002,4.754
					c-1.312,1.313-3.441,1.314-4.754,0.002C275.595,476.208,275.594,474.079,276.906,472.766z"/>
				<path style="fill:#0E4E7E;" d="M261.125,456.997c1.312-1.313,3.441-1.314,4.754-0.002c1.313,1.312,1.314,3.441,0.002,4.754
					c-1.312,1.313-3.441,1.314-4.754,0.002C259.814,460.439,259.813,458.31,261.125,456.997z"/>
				<path style="fill:#0E4E7E;" d="M245.344,441.228c1.312-1.313,3.441-1.314,4.754-0.002c1.313,1.312,1.314,3.441,0.002,4.754
					c-1.312,1.313-3.441,1.314-4.754,0.002C244.033,444.67,244.032,442.541,245.344,441.228z"/>
			</g>
			<g>
				<path style="fill:#0E4E7E;" d="M414.388,587.678c1.312-1.313,3.441-1.314,4.754-0.002c1.313,1.312,1.314,3.441,0.002,4.754
					c-1.312,1.313-3.441,1.314-4.754,0.002C413.077,591.12,413.076,588.991,414.388,587.678z"/>
				<path style="fill:#0E4E7E;" d="M398.607,571.909c1.312-1.313,3.441-1.314,4.754-0.002c1.313,1.312,1.314,3.441,0.002,4.754
					c-1.312,1.313-3.441,1.314-4.754,0.002C397.296,575.351,397.295,573.222,398.607,571.909z"/>
				<path style="fill:#0E4E7E;" d="M382.826,556.14c1.312-1.313,3.441-1.314,4.754-0.002c1.313,1.312,1.314,3.441,0.002,4.754
					c-1.312,1.313-3.441,1.314-4.754,0.002C381.515,559.581,381.514,557.453,382.826,556.14z"/>
				<path style="fill:#0E4E7E;" d="M367.045,540.37c1.312-1.313,3.441-1.314,4.754-0.002c1.313,1.312,1.314,3.441,0.002,4.754
					c-1.312,1.313-3.441,1.314-4.754,0.002C365.733,543.812,365.733,541.684,367.045,540.37z"/>
				<path style="fill:#0E4E7E;" d="M351.264,524.601c1.312-1.313,3.441-1.314,4.754-0.002c1.313,1.312,1.314,3.441,0.002,4.754
					c-1.312,1.313-3.441,1.314-4.754,0.002C349.952,528.043,349.952,525.915,351.264,524.601z"/>
				<circle style="fill:#0E4E7E;" cx="337.861" cy="511.208" r="3.362"/>
				<path style="fill:#0E4E7E;" d="M319.702,493.063c1.312-1.313,3.441-1.314,4.754-0.002c1.313,1.312,1.314,3.441,0.002,4.754
					c-1.312,1.313-3.441,1.314-4.754,0.002C318.39,496.505,318.389,494.376,319.702,493.063z"/>
				<path style="fill:#0E4E7E;" d="M303.92,477.294c1.312-1.313,3.441-1.314,4.754-0.002c1.313,1.312,1.314,3.441,0.002,4.754
					c-1.312,1.313-3.441,1.314-4.754,0.002C302.609,480.736,302.608,478.607,303.92,477.294z"/>
				<path style="fill:#0E4E7E;" d="M288.139,461.525c1.312-1.313,3.441-1.314,4.754-0.002c1.313,1.312,1.314,3.441,0.002,4.754
					c-1.312,1.313-3.441,1.314-4.754,0.002C286.828,464.967,286.827,462.838,288.139,461.525z"/>
				<path style="fill:#0E4E7E;" d="M272.358,445.756c1.312-1.313,3.441-1.314,4.754-0.002c1.313,1.312,1.314,3.441,0.002,4.754
					c-1.312,1.313-3.441,1.314-4.754,0.002C271.047,449.197,271.046,447.069,272.358,445.756z"/>
				<path style="fill:#0E4E7E;" d="M256.577,429.987c1.312-1.313,3.441-1.314,4.754-0.002c1.313,1.312,1.314,3.441,0.002,4.754
					c-1.312,1.313-3.441,1.314-4.754,0.002C255.265,433.428,255.265,431.3,256.577,429.987z"/>
			</g>
			<g>
				<circle style="fill:#0E4E7E;" cx="427.999" cy="578.813" r="3.362"/>
				<path style="fill:#0E4E7E;" d="M409.84,560.667c1.312-1.313,3.441-1.314,4.754-0.002c1.313,1.312,1.314,3.441,0.002,4.754
					c-1.312,1.313-3.441,1.314-4.754,0.002C408.529,564.109,408.528,561.981,409.84,560.667z"/>
				<path style="fill:#0E4E7E;" d="M394.059,544.898c1.312-1.313,3.441-1.314,4.754-0.002c1.313,1.312,1.314,3.441,0.002,4.754
					c-1.312,1.313-3.441,1.314-4.754,0.002C392.747,548.34,392.747,546.211,394.059,544.898z"/>
				<path style="fill:#0E4E7E;" d="M378.278,529.129c1.312-1.313,3.441-1.314,4.754-0.002c1.313,1.312,1.314,3.441,0.002,4.754
					c-1.312,1.313-3.441,1.314-4.754,0.002C376.966,532.571,376.965,530.442,378.278,529.129z"/>
				<circle style="fill:#0E4E7E;" cx="364.875" cy="515.736" r="3.362"/>
				<path style="fill:#0E4E7E;" d="M346.715,497.591c1.312-1.313,3.441-1.314,4.754-0.002c1.313,1.312,1.314,3.441,0.002,4.754
					c-1.312,1.313-3.441,1.314-4.754,0.002C345.404,501.033,345.403,498.904,346.715,497.591z"/>
				<path style="fill:#0E4E7E;" d="M330.934,481.822c1.312-1.313,3.441-1.314,4.754-0.002c1.313,1.312,1.314,3.441,0.002,4.754
					c-1.312,1.313-3.441,1.314-4.754,0.002C329.623,485.263,329.622,483.135,330.934,481.822z"/>
				<path style="fill:#0E4E7E;" d="M315.153,466.052c1.312-1.313,3.441-1.314,4.754-0.002c1.313,1.312,1.314,3.441,0.002,4.754
					c-1.312,1.313-3.441,1.314-4.754,0.002C313.842,469.494,313.841,467.366,315.153,466.052z"/>
				
					<ellipse transform="matrix(0.0779 -0.997 0.997 0.0779 -173.0454 718.2213)" style="fill:#0E4E7E;" cx="301.75" cy="452.66" rx="3.362" ry="3.362"/>
				
					<ellipse transform="matrix(0.0447 -0.999 0.999 0.0447 -163.255 703.0658)" style="fill:#0E4E7E;" cx="285.969" cy="436.89" rx="3.362" ry="3.362"/>
				<path style="fill:#0E4E7E;" d="M267.81,418.745c1.312-1.313,3.441-1.314,4.754-0.002c1.313,1.312,1.314,3.441,0.002,4.754
					c-1.312,1.313-3.441,1.314-4.754,0.002C266.498,422.187,266.497,420.059,267.81,418.745z"/>
			</g>
			<g>
				<path style="fill:#0E4E7E;" d="M436.854,565.195c1.312-1.313,3.441-1.314,4.754-0.002c1.313,1.312,1.314,3.441,0.002,4.754
					c-1.312,1.313-3.441,1.314-4.754,0.002C435.542,568.637,435.542,566.508,436.854,565.195z"/>
				<path style="fill:#0E4E7E;" d="M421.073,549.426c1.312-1.313,3.441-1.314,4.754-0.002c1.313,1.312,1.314,3.441,0.002,4.754
					c-1.312,1.313-3.441,1.314-4.754,0.002C419.761,552.868,419.76,550.739,421.073,549.426z"/>
				<path style="fill:#0E4E7E;" d="M405.292,533.657c1.312-1.313,3.441-1.314,4.754-0.002c1.313,1.312,1.314,3.441,0.002,4.754
					c-1.312,1.313-3.441,1.314-4.754,0.002C403.98,537.099,403.979,534.97,405.292,533.657z"/>
				<circle style="fill:#0E4E7E;" cx="391.889" cy="520.264" r="3.362"/>
				<path style="fill:#0E4E7E;" d="M373.729,502.118c1.312-1.313,3.441-1.314,4.754-0.002c1.313,1.312,1.314,3.441,0.002,4.754
					c-1.312,1.313-3.441,1.314-4.754,0.002C372.418,505.56,372.417,503.432,373.729,502.118z"/>
				<path style="fill:#0E4E7E;" d="M357.948,486.349c1.312-1.313,3.441-1.314,4.754-0.002c1.313,1.312,1.314,3.441,0.002,4.754
					c-1.312,1.313-3.441,1.314-4.754,0.002C356.637,489.791,356.636,487.663,357.948,486.349z"/>
				<path style="fill:#0E4E7E;" d="M342.167,470.58c1.312-1.313,3.441-1.314,4.754-0.002c1.313,1.312,1.314,3.441,0.002,4.754
					c-1.312,1.313-3.441,1.314-4.754,0.002C340.856,474.022,340.855,471.894,342.167,470.58z"/>
				<circle style="fill:#0E4E7E;" cx="328.764" cy="457.187" r="3.362"/>
				<path style="fill:#0E4E7E;" d="M310.605,439.042c1.312-1.313,3.441-1.314,4.754-0.002c1.313,1.312,1.314,3.441,0.002,4.754
					c-1.312,1.313-3.441,1.314-4.754,0.002C309.293,442.484,309.292,440.355,310.605,439.042z"/>
				<path style="fill:#0E4E7E;" d="M294.824,423.273c1.312-1.313,3.441-1.314,4.754-0.002c1.313,1.312,1.314,3.441,0.002,4.754
					c-1.312,1.313-3.441,1.314-4.754,0.002C293.512,426.715,293.511,424.586,294.824,423.273z"/>
				<path style="fill:#0E4E7E;" d="M279.042,407.504c1.312-1.313,3.441-1.314,4.754-0.002c1.313,1.312,1.314,3.441,0.002,4.754
					c-1.312,1.313-3.441,1.314-4.754,0.002C277.731,410.946,277.73,408.817,279.042,407.504z"/>
			</g>
			<g>
				<path style="fill:#0E4E7E;" d="M448.087,553.954c1.312-1.313,3.441-1.314,4.754-0.002c1.313,1.312,1.314,3.441,0.002,4.754
					c-1.312,1.313-3.441,1.314-4.754,0.002C446.775,557.396,446.775,555.267,448.087,553.954z"/>
				<circle style="fill:#0E4E7E;" cx="434.684" cy="540.561" r="3.362"/>
				<path style="fill:#0E4E7E;" d="M416.525,522.415c1.312-1.313,3.441-1.314,4.754-0.002c1.313,1.312,1.314,3.441,0.002,4.754
					c-1.312,1.313-3.441,1.314-4.754,0.002C415.213,525.857,415.212,523.729,416.525,522.415z"/>
				<path style="fill:#0E4E7E;" d="M400.743,506.646c1.312-1.313,3.441-1.314,4.754-0.002c1.313,1.312,1.314,3.441,0.002,4.754
					c-1.312,1.313-3.441,1.314-4.754,0.002C399.432,510.088,399.431,507.96,400.743,506.646z"/>
				<path style="fill:#0E4E7E;" d="M384.962,490.877c1.312-1.313,3.441-1.314,4.754-0.002c1.313,1.312,1.314,3.441,0.002,4.754
					c-1.312,1.313-3.441,1.314-4.754,0.002C383.651,494.319,383.65,492.19,384.962,490.877z"/>
				<path style="fill:#0E4E7E;" d="M369.181,475.108c1.312-1.313,3.441-1.314,4.754-0.002c1.313,1.312,1.314,3.441,0.002,4.754
					c-1.312,1.313-3.441,1.314-4.754,0.002C367.87,478.55,367.869,476.421,369.181,475.108z"/>
				<path style="fill:#0E4E7E;" d="M353.4,459.339c1.312-1.313,3.441-1.314,4.754-0.002c1.313,1.312,1.314,3.441,0.002,4.754
					c-1.312,1.313-3.441,1.314-4.754,0.002C352.088,462.781,352.088,460.652,353.4,459.339z"/>
				<path style="fill:#0E4E7E;" d="M337.619,443.57c1.312-1.313,3.441-1.314,4.754-0.002c1.313,1.312,1.314,3.441,0.002,4.754
					c-1.312,1.313-3.441,1.314-4.754,0.002C336.307,447.012,336.306,444.883,337.619,443.57z"/>
				<path style="fill:#0E4E7E;" d="M321.838,427.801c1.312-1.313,3.441-1.314,4.754-0.002c1.313,1.312,1.314,3.441,0.002,4.754
					c-1.312,1.313-3.441,1.314-4.754,0.002C320.526,431.242,320.525,429.114,321.838,427.801z"/>
				<path style="fill:#0E4E7E;" d="M306.056,412.031c1.312-1.313,3.441-1.314,4.754-0.002c1.313,1.312,1.314,3.441,0.002,4.754
					c-1.312,1.313-3.441,1.314-4.754,0.002C304.745,415.473,304.744,413.345,306.056,412.031z"/>
				<path style="fill:#0E4E7E;" d="M290.275,396.262c1.312-1.313,3.441-1.314,4.754-0.002c1.313,1.312,1.314,3.441,0.002,4.754
					c-1.312,1.313-3.441,1.314-4.754,0.002C288.964,399.704,288.963,397.576,290.275,396.262z"/>
			</g>
			<g>
				<path style="fill:#0E4E7E;" d="M459.32,542.712c1.312-1.313,3.441-1.314,4.754-0.002c1.313,1.312,1.314,3.441,0.002,4.754
					c-1.312,1.313-3.441,1.314-4.754,0.002C458.008,546.154,458.007,544.026,459.32,542.712z"/>
				<path style="fill:#0E4E7E;" d="M443.538,526.943c1.312-1.313,3.441-1.314,4.754-0.002c1.313,1.312,1.314,3.441,0.002,4.754
					c-1.312,1.313-3.441,1.314-4.754,0.002C442.227,530.385,442.226,528.256,443.538,526.943z"/>
				<path style="fill:#0E4E7E;" d="M427.757,511.174c1.312-1.313,3.441-1.314,4.754-0.002c1.313,1.312,1.314,3.441,0.002,4.754
					c-1.312,1.313-3.441,1.314-4.754,0.002C426.446,514.616,426.445,512.487,427.757,511.174z"/>
				<path style="fill:#0E4E7E;" d="M411.976,495.405c1.312-1.313,3.441-1.314,4.754-0.002c1.313,1.312,1.314,3.441,0.002,4.754
					c-1.312,1.313-3.441,1.314-4.754,0.002C410.665,498.847,410.664,496.718,411.976,495.405z"/>
				
					<ellipse transform="matrix(0.1138 -0.9935 0.9935 0.1138 -125.6591 823.1522)" style="fill:#0E4E7E;" cx="398.573" cy="482.012" rx="3.362" ry="3.362"/>
				<path style="fill:#0E4E7E;" d="M380.414,463.867c1.312-1.313,3.441-1.314,4.754-0.002c1.313,1.312,1.314,3.441,0.002,4.754
					c-1.312,1.313-3.441,1.314-4.754,0.002C379.102,467.309,379.102,465.18,380.414,463.867z"/>
				<path style="fill:#0E4E7E;" d="M364.633,448.098c1.312-1.313,3.441-1.314,4.754-0.002c1.313,1.312,1.314,3.441,0.002,4.754
					c-1.312,1.313-3.441,1.314-4.754,0.002C363.321,451.539,363.32,449.411,364.633,448.098z"/>
				<path style="fill:#0E4E7E;" d="M348.852,432.328c1.312-1.313,3.441-1.314,4.754-0.002c1.313,1.312,1.314,3.441,0.002,4.754
					c-1.312,1.313-3.441,1.314-4.754,0.002C347.54,435.77,347.539,433.642,348.852,432.328z"/>
				<path style="fill:#0E4E7E;" d="M333.07,416.559c1.312-1.313,3.441-1.314,4.754-0.002c1.313,1.312,1.314,3.441,0.002,4.754
					c-1.312,1.313-3.441,1.314-4.754,0.002C331.759,420.001,331.758,417.873,333.07,416.559z"/>
				<circle style="fill:#0E4E7E;" cx="319.667" cy="403.166" r="3.362"/>
				<path style="fill:#0E4E7E;" d="M301.508,385.021c1.312-1.313,3.441-1.314,4.754-0.002c1.313,1.312,1.314,3.441,0.002,4.754
					c-1.312,1.313-3.441,1.314-4.754,0.002C300.197,388.463,300.196,386.334,301.508,385.021z"/>
			</g>
		</g>
		<path style="opacity:0.28;clip-path:url(#SVGID_00000017479849014934887250000006928822399609869484_);fill:#0E4E7E;" d="
			M343.406-6.233H-19.661l-5.3,126.987c15.901,35.887,100.705,64.873,117.931,0c17.226-64.874,53.003-69.014,95.405-44.169
			c42.402,24.845,113.982,57.945,164.308,5.521C372.558,61.401,371.233,15.851,343.406-6.233z"/>
		<path style="clip-path:url(#SVGID_00000017479849014934887250000006928822399609869484_);fill:#0E4E7E;" d="M298.95-8.233H-12.416
			l-4.545,84.024c13.636,23.746,86.364,42.925,101.137,0c14.773-42.926,45.455-45.665,81.819-29.226
			c36.364,16.44,97.75,38.341,140.91,3.653C323.95,36.519,322.814,6.38,298.95-8.233z"/>
		<path style="opacity:0.28;clip-path:url(#SVGID_00000017479849014934887250000006928822399609869484_);fill:#0E4E7E;" d="
			M604.222,331.792c-44.012-32.543-80.792,19.264-110.435,78.536c-29.643,59.272-73.758,16.75-105.276,35.563
			c-45.338,27.063-39.574,66.681-39.574,66.681l421.723,1.482V262.147C680.639,229.548,685.973,392.239,604.222,331.792z"/>
		<path style="clip-path:url(#SVGID_00000017479849014934887250000006928822399609869484_);fill:#0E4E7E;" d="M613.248,401.491
			c-41.625-20.098-76.41,11.897-104.446,48.503c-28.036,36.606-69.758,10.345-99.567,21.964
			c-42.879,16.714-37.428,41.182-37.428,41.182l398.852,0.915V358.478C685.521,338.345,690.565,438.822,613.248,401.491z"/>
		<path style="opacity:0.28;clip-path:url(#SVGID_00000017479849014934887250000006928822399609869484_);fill:#0E4E7E;" d="
			M303.653,533.055c0,0,23.621-145.719-54.703-153.831c-78.324-8.112-108.162,70.495-171.567,47.624
			c-63.405-22.871-67.135-87.599-125.567-65.483v166.901L303.653,533.055z"/>
		<path style="opacity:0.28;clip-path:url(#SVGID_00000017479849014934887250000006928822399609869484_);fill:#0E4E7E;" d="
			M417.007-9.12c14.144,60.493,88.399,23.83,121.991,43.995c33.592,20.164,102.543,192.477,233.374,124.652V-16.453L417.007-9.12z"
			/>
		<path style="clip-path:url(#SVGID_00000017479849014934887250000006928822399609869484_);fill:#0E4E7E;" d="M475.194-11.528
			c11.828,40.624,73.925,16.004,102.017,29.545c28.091,13.541,85.753,129.259,195.162,83.711v-118.18L475.194-11.528z"/>
		<path style="clip-path:url(#SVGID_00000017479849014934887250000006928822399609869484_);fill:#0E4E7E;" d="M256.368,514.362
			c0,0,18.567-71.798-42.998-81.371c-61.565-9.573-85.018,39.888-134.856,21.539c-49.838-18.348-52.77-60.629-98.699-49.461v108.495
			L256.368,514.362z"/>
	</g>
</g>
<g id="OBJECTS">
	<g>
		<defs>
			<rect id="SVGID_00000018201307323164402590000011310617350666186940_" width="750" height="500"/>
		</defs>
		<clipPath id="SVGID_00000117659352718400597420000018166016903253905575_">
			<use xlink:href="#SVGID_00000018201307323164402590000011310617350666186940_"  style="overflow:visible;"/>
		</clipPath>
		
			<path style="opacity:0.6;clip-path:url(#SVGID_00000117659352718400597420000018166016903253905575_);fill:none;stroke:#F6F2CF;stroke-width:1.5;stroke-linecap:round;stroke-linejoin:round;stroke-miterlimit:10;" d="
			M126.566-13.3c0,0,31.085,109.298,124.341,104.462c93.256-4.836,155.426-93.822,240.204-63.838s43.802,149.922,272.702,159.594"/>
		
			<path style="opacity:0.4;clip-path:url(#SVGID_00000117659352718400597420000018166016903253905575_);fill:none;stroke:#F6F2CF;stroke-width:1.5;stroke-linecap:round;stroke-linejoin:round;stroke-miterlimit:10;" d="
			M70.36-7.234c0,0,48.287,134.249,145.925,125.346c97.638-8.903,167.175-103.989,254.156-76.344
			c86.98,27.646,37.972,154.025,276.514,154.566"/>
		
			<path style="opacity:0.6;clip-path:url(#SVGID_00000117659352718400597420000018166016903253905575_);fill:none;stroke:#F6F2CF;stroke-width:1.5;stroke-linecap:round;stroke-linejoin:round;stroke-miterlimit:10;" d="
			M526.372,545.584c6.978-65.788-92.188-179.087-171.75-98.595c-79.562,80.492-142.51,32.595-191.129-53.491
			C122.85,321.534,61.248,251.783-56.065,286.39"/>
		
			<path style="opacity:0.4;clip-path:url(#SVGID_00000117659352718400597420000018166016903253905575_);fill:none;stroke:#F6F2CF;stroke-width:1.5;stroke-linecap:round;stroke-linejoin:round;stroke-miterlimit:10;" d="
			M582.852,527.291c3.65-66.885-130.418-189.818-213.408-110.77c-82.99,79.049-128.485,55.903-178.129-18.988
			C141.671,322.642,50.457,209.128-77.107,239.856"/>
	</g>
	<g>
		<defs>
			<rect id="SVGID_00000090265949815163161100000016541992537098840982_" width="750" height="500"/>
		</defs>
		<clipPath id="SVGID_00000081617658473824597130000000477340533327824022_">
			<use xlink:href="#SVGID_00000090265949815163161100000016541992537098840982_"  style="overflow:visible;"/>
		</clipPath>
		<g style="opacity:0.6;clip-path:url(#SVGID_00000081617658473824597130000000477340533327824022_);">
			<g>
				<path style="fill:#F6F2CF;" d="M645.32,73.702c0.354,1.047-0.207,2.183-1.254,2.537c-1.047,0.354-2.182-0.207-2.537-1.254
					c-0.354-1.047,0.208-2.183,1.254-2.537C643.831,72.094,644.966,72.656,645.32,73.702z"/>
				<path style="fill:#F6F2CF;" d="M657.9,69.448c0.354,1.047-0.208,2.183-1.254,2.537c-1.047,0.354-2.183-0.207-2.537-1.254
					c-0.354-1.047,0.208-2.182,1.254-2.537C656.41,67.839,657.545,68.401,657.9,69.448z"/>
				<path style="fill:#F6F2CF;" d="M670.479,65.193c0.354,1.047-0.208,2.182-1.254,2.537c-1.047,0.354-2.183-0.208-2.537-1.254
					c-0.354-1.047,0.208-2.183,1.254-2.537C668.989,63.584,670.125,64.146,670.479,65.193z"/>
				<path style="fill:#F6F2CF;" d="M683.058,60.938c0.354,1.047-0.207,2.183-1.254,2.537c-1.047,0.354-2.182-0.208-2.537-1.254
					c-0.354-1.047,0.207-2.182,1.254-2.537C681.568,59.329,682.704,59.891,683.058,60.938z"/>
				<path style="fill:#F6F2CF;" d="M695.637,56.683c0.354,1.047-0.208,2.183-1.254,2.537c-1.047,0.354-2.183-0.208-2.537-1.254
					c-0.354-1.047,0.208-2.183,1.254-2.537C694.148,55.075,695.283,55.636,695.637,56.683z"/>
				<path style="fill:#F6F2CF;" d="M708.217,52.428c0.354,1.047-0.208,2.182-1.254,2.537c-1.047,0.354-2.182-0.208-2.537-1.254
					c-0.354-1.047,0.208-2.183,1.254-2.537C706.727,50.82,707.863,51.381,708.217,52.428z"/>
				<path style="fill:#F6F2CF;" d="M720.796,48.173c0.354,1.047-0.208,2.183-1.254,2.537c-1.047,0.354-2.182-0.208-2.537-1.254
					c-0.354-1.047,0.207-2.182,1.254-2.537C719.306,46.565,720.442,47.126,720.796,48.173z"/>
				<path style="fill:#F6F2CF;" d="M733.375,43.918c0.354,1.047-0.208,2.183-1.254,2.537c-1.047,0.354-2.183-0.208-2.537-1.254
					c-0.354-1.047,0.208-2.182,1.254-2.537C731.885,42.31,733.021,42.872,733.375,43.918z"/>
				<path style="fill:#F6F2CF;" d="M745.954,39.664c0.354,1.047-0.207,2.182-1.254,2.537c-1.047,0.354-2.182-0.207-2.537-1.254
					c-0.354-1.047,0.207-2.183,1.254-2.537C744.465,38.055,745.6,38.617,745.954,39.664z"/>
				<path style="fill:#F6F2CF;" d="M758.534,35.409c0.354,1.047-0.207,2.183-1.254,2.537c-1.047,0.354-2.182-0.208-2.537-1.254
					c-0.354-1.047,0.207-2.183,1.254-2.537C757.044,33.8,758.18,34.362,758.534,35.409z"/>
				<path style="fill:#F6F2CF;" d="M771.113,31.154c0.354,1.047-0.208,2.182-1.254,2.537c-1.047,0.354-2.183-0.207-2.537-1.254
					c-0.354-1.047,0.207-2.183,1.254-2.537C769.623,29.545,770.759,30.107,771.113,31.154z"/>
			</g>
			<g>
				<path style="fill:#F6F2CF;" d="M648.351,82.663c0.354,1.047-0.208,2.182-1.254,2.537c-1.047,0.354-2.183-0.207-2.537-1.254
					c-0.354-1.047,0.208-2.183,1.254-2.537C646.862,81.055,647.997,81.616,648.351,82.663z"/>
				<path style="fill:#F6F2CF;" d="M660.93,78.408c0.354,1.047-0.207,2.183-1.254,2.537c-1.047,0.354-2.182-0.208-2.537-1.254
					c-0.354-1.047,0.208-2.182,1.254-2.537C659.441,76.8,660.576,77.361,660.93,78.408z"/>
				<path style="fill:#F6F2CF;" d="M673.51,74.153c0.354,1.047-0.207,2.183-1.254,2.537c-1.047,0.354-2.182-0.208-2.537-1.254
					c-0.354-1.047,0.207-2.183,1.254-2.537C672.02,72.545,673.156,73.106,673.51,74.153z"/>
				<path style="fill:#F6F2CF;" d="M686.089,69.898c0.354,1.047-0.208,2.183-1.254,2.537c-1.047,0.354-2.183-0.207-2.537-1.254
					c-0.354-1.047,0.208-2.183,1.254-2.537C684.599,68.29,685.735,68.852,686.089,69.898z"/>
				<path style="fill:#F6F2CF;" d="M698.668,65.644c0.354,1.047-0.208,2.183-1.254,2.537c-1.047,0.354-2.182-0.207-2.537-1.254
					c-0.354-1.047,0.208-2.183,1.254-2.537C697.178,64.035,698.314,64.597,698.668,65.644z"/>
				<path style="fill:#F6F2CF;" d="M711.248,61.389c0.354,1.047-0.207,2.182-1.254,2.537c-1.047,0.354-2.182-0.208-2.537-1.254
					c-0.354-1.047,0.207-2.183,1.254-2.537C709.758,59.78,710.893,60.342,711.248,61.389z"/>
				<path style="fill:#F6F2CF;" d="M723.827,57.134c0.354,1.047-0.208,2.182-1.254,2.537c-1.047,0.354-2.183-0.207-2.537-1.254
					c-0.354-1.047,0.208-2.183,1.254-2.537C722.337,55.525,723.473,56.087,723.827,57.134z"/>
				<path style="fill:#F6F2CF;" d="M736.406,52.879c0.354,1.047-0.207,2.183-1.254,2.537c-1.047,0.354-2.182-0.208-2.537-1.254
					c-0.354-1.047,0.207-2.182,1.254-2.537C734.916,51.271,736.052,51.832,736.406,52.879z"/>
				<path style="fill:#F6F2CF;" d="M748.985,48.624c0.354,1.047-0.208,2.183-1.254,2.537c-1.047,0.354-2.183-0.208-2.537-1.254
					c-0.354-1.047,0.207-2.183,1.254-2.537C747.496,47.016,748.631,47.577,748.985,48.624z"/>
				<path style="fill:#F6F2CF;" d="M761.565,44.369c0.354,1.047-0.208,2.183-1.254,2.537c-1.047,0.354-2.183-0.207-2.537-1.254
					c-0.354-1.047,0.208-2.183,1.254-2.537C760.075,42.761,761.211,43.322,761.565,44.369z"/>
				<path style="fill:#F6F2CF;" d="M774.144,40.114c0.354,1.047-0.207,2.183-1.254,2.537c-1.047,0.354-2.182-0.208-2.537-1.254
					c-0.354-1.047,0.207-2.183,1.254-2.537C772.654,38.506,773.79,39.068,774.144,40.114z"/>
			</g>
			<g>
				<path style="fill:#F6F2CF;" d="M651.382,91.624c0.354,1.047-0.208,2.182-1.254,2.537c-1.047,0.354-2.182-0.208-2.537-1.254
					c-0.354-1.047,0.208-2.183,1.254-2.537C649.892,90.015,651.028,90.577,651.382,91.624z"/>
				<path style="fill:#F6F2CF;" d="M663.961,87.369c0.354,1.047-0.207,2.183-1.254,2.537c-1.047,0.354-2.182-0.208-2.537-1.254
					c-0.354-1.047,0.207-2.183,1.254-2.537C662.472,85.76,663.607,86.322,663.961,87.369z"/>
				<path style="fill:#F6F2CF;" d="M676.541,83.114c0.354,1.047-0.208,2.183-1.254,2.537c-1.047,0.354-2.183-0.207-2.537-1.254
					c-0.354-1.047,0.208-2.183,1.254-2.537C675.051,81.506,676.186,82.067,676.541,83.114z"/>
				<path style="fill:#F6F2CF;" d="M689.12,78.859c0.354,1.047-0.207,2.183-1.254,2.537c-1.047,0.354-2.182-0.207-2.537-1.254
					c-0.354-1.047,0.208-2.182,1.254-2.537C687.63,77.251,688.766,77.812,689.12,78.859z"/>
				<path style="fill:#F6F2CF;" d="M701.699,74.604c0.354,1.047-0.207,2.183-1.254,2.537c-1.047,0.354-2.182-0.207-2.537-1.254
					c-0.354-1.047,0.207-2.183,1.254-2.537C700.209,72.996,701.345,73.557,701.699,74.604z"/>
				<path style="fill:#F6F2CF;" d="M714.278,70.349c0.354,1.047-0.208,2.183-1.254,2.537c-1.047,0.354-2.183-0.208-2.537-1.254
					c-0.354-1.047,0.208-2.183,1.254-2.537C712.789,68.741,713.924,69.302,714.278,70.349z"/>
				<path style="fill:#F6F2CF;" d="M726.858,66.094c0.354,1.047-0.207,2.183-1.254,2.537c-1.047,0.354-2.182-0.208-2.537-1.254
					c-0.354-1.047,0.207-2.183,1.254-2.537C725.368,64.486,726.504,65.048,726.858,66.094z"/>
				<path style="fill:#F6F2CF;" d="M739.437,61.84c0.354,1.047-0.208,2.183-1.254,2.537c-1.047,0.354-2.182-0.207-2.537-1.254
					c-0.354-1.047,0.207-2.183,1.254-2.537C737.947,60.231,739.083,60.793,739.437,61.84z"/>
				<path style="fill:#F6F2CF;" d="M752.016,57.585c0.354,1.047-0.208,2.183-1.254,2.537c-1.047,0.354-2.183-0.208-2.537-1.254
					c-0.354-1.047,0.208-2.182,1.254-2.537C750.526,55.976,751.662,56.538,752.016,57.585z"/>
				<path style="fill:#F6F2CF;" d="M764.595,53.33c0.354,1.047-0.207,2.183-1.254,2.537c-1.047,0.354-2.182-0.208-2.537-1.254
					c-0.354-1.047,0.208-2.183,1.254-2.537C763.106,51.721,764.241,52.283,764.595,53.33z"/>
				<path style="fill:#F6F2CF;" d="M777.175,49.075c0.354,1.047-0.208,2.183-1.254,2.537c-1.047,0.354-2.183-0.207-2.537-1.254
					c-0.354-1.047,0.207-2.183,1.254-2.537C775.685,47.467,776.821,48.028,777.175,49.075z"/>
			</g>
			<g>
				<path style="fill:#F6F2CF;" d="M654.413,100.584c0.354,1.047-0.208,2.183-1.254,2.537c-1.047,0.354-2.182-0.208-2.537-1.254
					c-0.354-1.047,0.207-2.183,1.254-2.537C652.923,98.976,654.059,99.537,654.413,100.584z"/>
				<path style="fill:#F6F2CF;" d="M666.992,96.329c0.354,1.047-0.208,2.183-1.254,2.537c-1.047,0.354-2.183-0.207-2.537-1.254
					c-0.354-1.047,0.208-2.183,1.254-2.537C665.502,94.721,666.638,95.283,666.992,96.329z"/>
				<path style="fill:#F6F2CF;" d="M679.571,92.075c0.354,1.047-0.207,2.183-1.254,2.537c-1.047,0.354-2.182-0.207-2.537-1.254
					c-0.354-1.047,0.208-2.183,1.254-2.537C678.082,90.466,679.217,91.028,679.571,92.075z"/>
				<path style="fill:#F6F2CF;" d="M692.151,87.82c0.354,1.047-0.207,2.183-1.254,2.537c-1.047,0.354-2.182-0.207-2.537-1.254
					c-0.354-1.047,0.207-2.182,1.254-2.537C690.661,86.211,691.797,86.773,692.151,87.82z"/>
				<path style="fill:#F6F2CF;" d="M704.73,83.565c0.354,1.047-0.208,2.183-1.254,2.537c-1.047,0.354-2.183-0.208-2.537-1.254
					c-0.354-1.047,0.207-2.183,1.254-2.537C703.24,81.956,704.376,82.518,704.73,83.565z"/>
				<path style="fill:#F6F2CF;" d="M717.309,79.31c0.354,1.047-0.207,2.183-1.254,2.537c-1.047,0.354-2.182-0.208-2.537-1.254
					c-0.354-1.047,0.207-2.183,1.254-2.537C715.819,77.701,716.955,78.263,717.309,79.31z"/>
				<path style="fill:#F6F2CF;" d="M729.889,75.055c0.354,1.047-0.208,2.183-1.254,2.537c-1.047,0.354-2.183-0.207-2.537-1.254
					c-0.354-1.047,0.207-2.183,1.254-2.537C728.399,73.447,729.534,74.008,729.889,75.055z"/>
				<path style="fill:#F6F2CF;" d="M742.468,70.8c0.354,1.047-0.208,2.182-1.254,2.537c-1.047,0.354-2.183-0.207-2.537-1.254
					c-0.354-1.047,0.208-2.183,1.254-2.537C740.978,69.192,742.114,69.753,742.468,70.8z"/>
				<path style="fill:#F6F2CF;" d="M755.047,66.545c0.354,1.047-0.207,2.183-1.254,2.537c-1.047,0.354-2.182-0.208-2.537-1.254
					c-0.354-1.047,0.207-2.182,1.254-2.537C753.557,64.937,754.693,65.498,755.047,66.545z"/>
				<path style="fill:#F6F2CF;" d="M767.626,62.29c0.354,1.047-0.208,2.183-1.254,2.537c-1.047,0.354-2.183-0.208-2.537-1.254
					c-0.354-1.047,0.208-2.182,1.254-2.537C766.137,60.682,767.272,61.244,767.626,62.29z"/>
				<path style="fill:#F6F2CF;" d="M780.206,58.036c0.354,1.047-0.207,2.183-1.254,2.537c-1.047,0.354-2.183-0.208-2.537-1.254
					c-0.354-1.047,0.207-2.183,1.254-2.537C778.716,56.427,779.852,56.989,780.206,58.036z"/>
			</g>
			<g>
				<path style="fill:#F6F2CF;" d="M657.444,109.545c0.354,1.047-0.208,2.183-1.254,2.537c-1.047,0.354-2.183-0.207-2.537-1.254
					c-0.354-1.047,0.208-2.183,1.254-2.537C655.954,107.936,657.09,108.498,657.444,109.545z"/>
				<path style="fill:#F6F2CF;" d="M670.023,105.29c0.354,1.047-0.207,2.183-1.254,2.537c-1.047,0.354-2.182-0.207-2.537-1.254
					c-0.354-1.047,0.208-2.182,1.254-2.537C668.533,103.682,669.669,104.243,670.023,105.29z"/>
				<path style="fill:#F6F2CF;" d="M682.602,101.035c0.354,1.047-0.207,2.182-1.254,2.537c-1.047,0.354-2.183-0.208-2.537-1.254
					c-0.354-1.047,0.207-2.183,1.254-2.537C681.113,99.427,682.248,99.988,682.602,101.035z"/>
				<path style="fill:#F6F2CF;" d="M695.182,96.78c0.354,1.047-0.208,2.183-1.254,2.537c-1.047,0.354-2.183-0.208-2.537-1.254
					c-0.354-1.047,0.208-2.183,1.254-2.537C693.692,95.172,694.828,95.733,695.182,96.78z"/>
				<path style="fill:#F6F2CF;" d="M707.761,92.525c0.354,1.047-0.207,2.183-1.254,2.537c-1.047,0.354-2.182-0.207-2.537-1.254
					c-0.354-1.047,0.207-2.183,1.254-2.537C706.271,90.917,707.407,91.479,707.761,92.525z"/>
				<path style="fill:#F6F2CF;" d="M720.34,88.271c0.354,1.047-0.208,2.183-1.254,2.537c-1.047,0.354-2.183-0.207-2.537-1.254
					c-0.354-1.047,0.208-2.183,1.254-2.537C718.85,86.662,719.986,87.224,720.34,88.271z"/>
				<path style="fill:#F6F2CF;" d="M732.919,84.016c0.354,1.047-0.208,2.183-1.254,2.537c-1.047,0.354-2.183-0.207-2.537-1.254
					c-0.354-1.047,0.208-2.182,1.254-2.537C731.43,82.407,732.565,82.969,732.919,84.016z"/>
				<path style="fill:#F6F2CF;" d="M745.499,79.761c0.354,1.047-0.207,2.183-1.254,2.537c-1.047,0.354-2.182-0.208-2.537-1.254
					c-0.354-1.047,0.207-2.183,1.254-2.537C744.009,78.152,745.145,78.714,745.499,79.761z"/>
				<path style="fill:#F6F2CF;" d="M758.078,75.506c0.354,1.047-0.208,2.183-1.254,2.537c-1.047,0.354-2.183-0.208-2.537-1.254
					c-0.354-1.047,0.208-2.183,1.254-2.537C756.588,73.897,757.724,74.459,758.078,75.506z"/>
				<path style="fill:#F6F2CF;" d="M770.657,71.251c0.354,1.047-0.207,2.183-1.254,2.537c-1.047,0.354-2.183-0.207-2.537-1.254
					c-0.354-1.047,0.207-2.183,1.254-2.537C769.167,69.643,770.303,70.204,770.657,71.251z"/>
				<path style="fill:#F6F2CF;" d="M783.237,66.996c0.354,1.047-0.208,2.183-1.254,2.537c-1.047,0.354-2.182-0.207-2.537-1.254
					c-0.354-1.047,0.208-2.182,1.254-2.537C781.747,65.388,782.882,65.949,783.237,66.996z"/>
			</g>
			<g>
				<path style="fill:#F6F2CF;" d="M660.475,118.505c0.354,1.047-0.207,2.182-1.254,2.537c-1.047,0.354-2.182-0.207-2.537-1.254
					c-0.354-1.047,0.207-2.183,1.254-2.537C658.985,116.897,660.121,117.459,660.475,118.505z"/>
				<path style="fill:#F6F2CF;" d="M673.054,114.251c0.354,1.047-0.208,2.183-1.254,2.537c-1.047,0.354-2.183-0.208-2.537-1.254
					c-0.354-1.047,0.208-2.183,1.254-2.537C671.564,112.642,672.7,113.204,673.054,114.251z"/>
				<path style="fill:#F6F2CF;" d="M685.633,109.996c0.354,1.047-0.208,2.183-1.254,2.537c-1.047,0.354-2.183-0.208-2.537-1.254
					c-0.354-1.047,0.208-2.183,1.254-2.537C684.143,108.387,685.279,108.949,685.633,109.996z"/>
				<path style="fill:#F6F2CF;" d="M698.212,105.741c0.354,1.047-0.207,2.183-1.254,2.537c-1.047,0.354-2.182-0.207-2.537-1.254
					c-0.354-1.047,0.208-2.183,1.254-2.537C696.723,104.132,697.858,104.694,698.212,105.741z"/>
				<path style="fill:#F6F2CF;" d="M710.792,101.486c0.354,1.047-0.208,2.183-1.254,2.537c-1.047,0.354-2.183-0.207-2.537-1.254
					c-0.354-1.047,0.208-2.183,1.254-2.537C709.302,99.878,710.438,100.439,710.792,101.486z"/>
				<path style="fill:#F6F2CF;" d="M723.371,97.231c0.354,1.047-0.207,2.183-1.254,2.537c-1.047,0.354-2.183-0.207-2.537-1.254
					c-0.354-1.047,0.207-2.182,1.254-2.537C721.881,95.623,723.017,96.184,723.371,97.231z"/>
				<path style="fill:#F6F2CF;" d="M735.95,92.976c0.354,1.047-0.207,2.183-1.254,2.537c-1.047,0.354-2.182-0.208-2.537-1.254
					c-0.354-1.047,0.207-2.183,1.254-2.537C734.461,91.368,735.596,91.929,735.95,92.976z"/>
				<path style="fill:#F6F2CF;" d="M748.53,88.721c0.354,1.047-0.208,2.183-1.254,2.537c-1.047,0.354-2.183-0.208-2.537-1.254
					c-0.354-1.047,0.208-2.183,1.254-2.537C747.04,87.113,748.175,87.674,748.53,88.721z"/>
				<path style="fill:#F6F2CF;" d="M761.109,84.466c0.354,1.047-0.207,2.183-1.254,2.537c-1.047,0.354-2.183-0.207-2.537-1.254
					c-0.354-1.047,0.207-2.183,1.254-2.537C759.619,82.858,760.755,83.42,761.109,84.466z"/>
				<path style="fill:#F6F2CF;" d="M773.688,80.212c0.354,1.047-0.208,2.182-1.254,2.537c-1.047,0.354-2.182-0.207-2.537-1.254
					c-0.354-1.047,0.207-2.183,1.254-2.537C772.198,78.603,773.334,79.165,773.688,80.212z"/>
				<path style="fill:#F6F2CF;" d="M786.267,75.957c0.354,1.047-0.208,2.183-1.254,2.537c-1.047,0.354-2.183-0.208-2.537-1.254
					c-0.354-1.047,0.208-2.182,1.254-2.537C784.778,74.348,785.913,74.91,786.267,75.957z"/>
			</g>
			<g>
				<path style="fill:#F6F2CF;" d="M663.506,127.466c0.354,1.047-0.208,2.183-1.254,2.537c-1.047,0.354-2.183-0.207-2.537-1.254
					c-0.354-1.047,0.208-2.183,1.254-2.537C662.016,125.857,663.151,126.419,663.506,127.466z"/>
				<path style="fill:#F6F2CF;" d="M676.085,123.211c0.354,1.047-0.208,2.183-1.254,2.537c-1.047,0.354-2.183-0.208-2.537-1.254
					c-0.354-1.047,0.208-2.183,1.254-2.537C674.595,121.603,675.731,122.164,676.085,123.211z"/>
				<path style="fill:#F6F2CF;" d="M688.664,118.956c0.354,1.047-0.207,2.183-1.254,2.537c-1.047,0.354-2.182-0.207-2.537-1.254
					c-0.354-1.047,0.207-2.183,1.254-2.537C687.174,117.348,688.31,117.909,688.664,118.956z"/>
				<path style="fill:#F6F2CF;" d="M701.243,114.701c0.354,1.047-0.208,2.183-1.254,2.537c-1.047,0.354-2.183-0.207-2.537-1.254
					c-0.354-1.047,0.208-2.182,1.254-2.537C699.754,113.093,700.889,113.655,701.243,114.701z"/>
				<path style="fill:#F6F2CF;" d="M713.823,110.447c0.354,1.047-0.207,2.182-1.254,2.537c-1.047,0.354-2.183-0.208-2.537-1.254
					c-0.354-1.047,0.208-2.183,1.254-2.537C712.333,108.838,713.469,109.4,713.823,110.447z"/>
				<path style="fill:#F6F2CF;" d="M726.402,106.192c0.354,1.047-0.207,2.183-1.254,2.537c-1.047,0.354-2.182-0.208-2.537-1.254
					s0.207-2.183,1.254-2.537C724.912,104.583,726.048,105.145,726.402,106.192z"/>
				<path style="fill:#F6F2CF;" d="M738.981,101.937c0.354,1.047-0.208,2.183-1.254,2.537c-1.047,0.354-2.183-0.207-2.537-1.254
					c-0.354-1.047,0.208-2.183,1.254-2.537C737.491,100.328,738.627,100.89,738.981,101.937z"/>
				<path style="fill:#F6F2CF;" d="M751.56,97.682c0.354,1.047-0.207,2.183-1.254,2.537c-1.047,0.354-2.183-0.207-2.537-1.254
					c-0.354-1.047,0.207-2.183,1.254-2.537C750.071,96.073,751.206,96.635,751.56,97.682z"/>
				<path style="fill:#F6F2CF;" d="M764.14,93.427c0.354,1.047-0.208,2.183-1.254,2.537c-1.047,0.354-2.182-0.207-2.537-1.254
					c-0.354-1.047,0.207-2.182,1.254-2.537C762.65,91.819,763.786,92.38,764.14,93.427z"/>
				<path style="fill:#F6F2CF;" d="M776.719,89.172c0.354,1.047-0.208,2.182-1.254,2.537c-1.047,0.354-2.183-0.208-2.537-1.254
					c-0.354-1.047,0.208-2.183,1.254-2.537C775.229,87.564,776.365,88.125,776.719,89.172z"/>
				<path style="fill:#F6F2CF;" d="M789.298,84.917c0.354,1.047-0.207,2.183-1.254,2.537c-1.047,0.354-2.183-0.208-2.537-1.254
					c-0.354-1.047,0.207-2.183,1.254-2.537C787.808,83.309,788.944,83.87,789.298,84.917z"/>
			</g>
			<g>
				<path style="fill:#F6F2CF;" d="M666.536,136.426c0.354,1.047-0.208,2.183-1.254,2.537c-1.047,0.354-2.183-0.207-2.537-1.254
					c-0.354-1.047,0.208-2.182,1.254-2.537C665.047,134.818,666.182,135.38,666.536,136.426z"/>
				<path style="fill:#F6F2CF;" d="M679.116,132.172c0.354,1.047-0.207,2.182-1.254,2.537c-1.047,0.354-2.182-0.208-2.537-1.254
					c-0.354-1.047,0.207-2.183,1.254-2.537C677.626,130.563,678.762,131.125,679.116,132.172z"/>
				<path style="fill:#F6F2CF;" d="M691.695,127.917c0.354,1.047-0.208,2.183-1.254,2.537c-1.047,0.354-2.183-0.208-2.537-1.254
					c-0.354-1.047,0.208-2.183,1.254-2.537C690.205,126.308,691.341,126.87,691.695,127.917z"/>
				<path style="fill:#F6F2CF;" d="M704.274,123.662c0.354,1.047-0.207,2.183-1.254,2.537c-1.047,0.354-2.183-0.208-2.537-1.254
					c-0.354-1.047,0.208-2.182,1.254-2.537C702.784,122.053,703.92,122.615,704.274,123.662z"/>
				<path style="fill:#F6F2CF;" d="M716.853,119.407c0.354,1.047-0.207,2.183-1.254,2.537c-1.047,0.354-2.182-0.208-2.537-1.254
					c-0.354-1.047,0.208-2.183,1.254-2.537C715.364,117.799,716.499,118.36,716.853,119.407z"/>
				<path style="fill:#F6F2CF;" d="M729.433,115.152c0.354,1.047-0.208,2.183-1.254,2.537c-1.047,0.354-2.183-0.207-2.537-1.254
					c-0.354-1.047,0.208-2.183,1.254-2.537C727.943,113.544,729.079,114.105,729.433,115.152z"/>
				<path style="fill:#F6F2CF;" d="M742.012,110.897c0.354,1.047-0.208,2.183-1.254,2.537c-1.047,0.354-2.183-0.207-2.537-1.254
					c-0.354-1.047,0.207-2.183,1.254-2.537C740.522,109.289,741.658,109.851,742.012,110.897z"/>
				<path style="fill:#F6F2CF;" d="M754.591,106.643c0.354,1.047-0.208,2.182-1.254,2.537c-1.047,0.354-2.182-0.207-2.537-1.254
					c-0.354-1.047,0.207-2.183,1.254-2.537C753.102,105.034,754.237,105.596,754.591,106.643z"/>
				<path style="fill:#F6F2CF;" d="M767.17,102.388c0.354,1.047-0.207,2.183-1.254,2.537c-1.047,0.354-2.183-0.208-2.537-1.254
					c-0.354-1.047,0.208-2.183,1.254-2.537C765.681,100.779,766.816,101.341,767.17,102.388z"/>
				<path style="fill:#F6F2CF;" d="M779.75,98.133c0.354,1.047-0.207,2.183-1.254,2.537c-1.047,0.354-2.182-0.208-2.537-1.254
					c-0.354-1.047,0.207-2.183,1.254-2.537C778.26,96.524,779.396,97.086,779.75,98.133z"/>
				<path style="fill:#F6F2CF;" d="M792.329,93.878c0.354,1.047-0.208,2.183-1.254,2.537c-1.047,0.354-2.182-0.207-2.537-1.254
					c-0.354-1.047,0.207-2.183,1.254-2.537C790.839,92.269,791.975,92.831,792.329,93.878z"/>
			</g>
		</g>
		<g style="opacity:0.6;clip-path:url(#SVGID_00000081617658473824597130000000477340533327824022_);">
			<g>
				<path style="fill:#F6F2CF;" d="M7.056,455.924c1.031-0.399,2.189,0.113,2.588,1.144c0.399,1.031-0.113,2.19-1.144,2.588
					c-1.031,0.399-2.189-0.113-2.588-1.144C5.514,457.482,6.026,456.323,7.056,455.924z"/>
				<path style="fill:#F6F2CF;" d="M2.263,443.54c1.031-0.399,2.189,0.113,2.588,1.144c0.399,1.031-0.113,2.189-1.144,2.588
					c-1.031,0.399-2.19-0.113-2.588-1.144C0.721,445.098,1.233,443.939,2.263,443.54z"/>
				<path style="fill:#F6F2CF;" d="M-2.53,431.156c1.031-0.399,2.189,0.113,2.588,1.144c0.399,1.031-0.113,2.19-1.144,2.588
					c-1.031,0.399-2.189-0.113-2.588-1.144C-4.072,432.714-3.56,431.555-2.53,431.156z"/>
				<path style="fill:#F6F2CF;" d="M-7.323,418.772c1.031-0.399,2.189,0.113,2.588,1.144c0.399,1.031-0.113,2.189-1.144,2.588
					c-1.031,0.399-2.189-0.113-2.588-1.144C-8.865,420.329-8.353,419.17-7.323,418.772z"/>
				<path style="fill:#F6F2CF;" d="M-12.116,406.387c1.031-0.399,2.189,0.113,2.588,1.144c0.399,1.031-0.113,2.19-1.144,2.588
					c-1.031,0.399-2.189-0.113-2.588-1.144C-13.658,407.945-13.146,406.786-12.116,406.387z"/>
				<path style="fill:#F6F2CF;" d="M-16.909,394.003c1.031-0.399,2.19,0.113,2.588,1.144c0.399,1.031-0.113,2.189-1.144,2.588
					c-1.031,0.399-2.189-0.113-2.588-1.144C-18.451,395.561-17.939,394.402-16.909,394.003z"/>
				<path style="fill:#F6F2CF;" d="M-21.702,381.619c1.031-0.399,2.189,0.113,2.588,1.144c0.399,1.031-0.113,2.19-1.144,2.588
					c-1.031,0.399-2.189-0.113-2.588-1.144C-23.244,383.177-22.732,382.018-21.702,381.619z"/>
				<path style="fill:#F6F2CF;" d="M-26.495,369.235c1.031-0.399,2.19,0.113,2.588,1.144c0.399,1.031-0.113,2.19-1.144,2.588
					c-1.031,0.399-2.189-0.113-2.588-1.144C-28.038,370.792-27.525,369.634-26.495,369.235z"/>
				<path style="fill:#F6F2CF;" d="M-31.288,356.85c1.031-0.399,2.189,0.113,2.588,1.144c0.399,1.031-0.113,2.189-1.144,2.588
					c-1.031,0.399-2.189-0.113-2.588-1.144C-32.831,358.408-32.319,357.249-31.288,356.85z"/>
				<path style="fill:#F6F2CF;" d="M-36.081,344.466c1.031-0.399,2.189,0.113,2.588,1.144c0.399,1.031-0.113,2.189-1.144,2.588
					c-1.031,0.399-2.189-0.113-2.588-1.144C-37.624,346.024-37.111,344.865-36.081,344.466z"/>
				<path style="fill:#F6F2CF;" d="M-40.874,332.082c1.031-0.399,2.19,0.113,2.588,1.144c0.399,1.031-0.113,2.189-1.144,2.588
					c-1.031,0.399-2.189-0.113-2.588-1.144C-42.417,333.64-41.904,332.481-40.874,332.082z"/>
			</g>
			<g>
				<path style="fill:#F6F2CF;" d="M15.878,452.51c1.031-0.399,2.189,0.113,2.588,1.144c0.399,1.031-0.113,2.189-1.144,2.588
					c-1.031,0.399-2.189-0.113-2.588-1.144C14.335,454.068,14.847,452.909,15.878,452.51z"/>
				<path style="fill:#F6F2CF;" d="M11.085,440.126c1.031-0.399,2.189,0.113,2.588,1.144c0.399,1.031-0.113,2.19-1.144,2.588
					c-1.031,0.399-2.189-0.113-2.588-1.144C9.542,441.684,10.054,440.525,11.085,440.126z"/>
				<path style="fill:#F6F2CF;" d="M6.292,427.741c1.031-0.399,2.189,0.113,2.588,1.144c0.399,1.031-0.113,2.189-1.144,2.588
					c-1.031,0.399-2.189-0.113-2.588-1.144C4.749,429.299,5.261,428.14,6.292,427.741z"/>
				<path style="fill:#F6F2CF;" d="M1.499,415.357c1.031-0.399,2.189,0.113,2.588,1.144c0.399,1.031-0.113,2.19-1.144,2.588
					c-1.031,0.399-2.19-0.113-2.588-1.144C-0.044,416.915,0.468,415.756,1.499,415.357z"/>
				<path style="fill:#F6F2CF;" d="M-3.294,402.973c1.031-0.399,2.19,0.113,2.588,1.144s-0.113,2.189-1.144,2.588
					c-1.031,0.399-2.189-0.113-2.588-1.144C-4.837,404.531-4.325,403.372-3.294,402.973z"/>
				<path style="fill:#F6F2CF;" d="M-8.087,390.589c1.031-0.399,2.189,0.113,2.588,1.144c0.399,1.031-0.113,2.19-1.144,2.588
					c-1.031,0.399-2.189-0.113-2.588-1.144C-9.63,392.147-9.118,390.988-8.087,390.589z"/>
				<path style="fill:#F6F2CF;" d="M-12.88,378.205c1.031-0.399,2.189,0.113,2.588,1.144c0.399,1.031-0.113,2.189-1.144,2.588
					c-1.031,0.399-2.189-0.113-2.588-1.144C-14.423,379.762-13.911,378.604-12.88,378.205z"/>
				<path style="fill:#F6F2CF;" d="M-17.673,365.82c1.031-0.399,2.19,0.113,2.588,1.144c0.399,1.031-0.113,2.189-1.144,2.588
					c-1.031,0.399-2.189-0.113-2.588-1.144C-19.216,367.378-18.704,366.219-17.673,365.82z"/>
				<path style="fill:#F6F2CF;" d="M-22.466,353.436c1.031-0.399,2.19,0.113,2.588,1.144c0.399,1.031-0.113,2.189-1.144,2.588
					c-1.031,0.399-2.19-0.113-2.588-1.144C-24.009,354.994-23.497,353.835-22.466,353.436z"/>
				<path style="fill:#F6F2CF;" d="M-27.259,341.052c1.031-0.399,2.189,0.113,2.588,1.144c0.399,1.031-0.113,2.189-1.144,2.588
					c-1.031,0.399-2.19-0.113-2.588-1.144C-28.802,342.61-28.29,341.451-27.259,341.052z"/>
				<path style="fill:#F6F2CF;" d="M-32.052,328.668c1.031-0.399,2.189,0.113,2.588,1.144c0.399,1.031-0.113,2.189-1.144,2.588
					c-1.031,0.399-2.189-0.113-2.588-1.144C-33.595,330.226-33.083,329.067-32.052,328.668z"/>
			</g>
			<g>
				<path style="fill:#F6F2CF;" d="M24.7,449.096c1.031-0.399,2.19,0.113,2.588,1.144c0.399,1.031-0.113,2.19-1.144,2.588
					c-1.031,0.399-2.189-0.113-2.588-1.144C23.157,450.654,23.669,449.495,24.7,449.096z"/>
				<path style="fill:#F6F2CF;" d="M19.907,436.711c1.031-0.399,2.189,0.113,2.588,1.144c0.399,1.031-0.113,2.189-1.144,2.588
					c-1.031,0.399-2.19-0.113-2.588-1.144C18.364,438.269,18.876,437.11,19.907,436.711z"/>
				<path style="fill:#F6F2CF;" d="M15.114,424.327c1.031-0.399,2.19,0.113,2.588,1.144c0.399,1.031-0.113,2.19-1.144,2.588
					c-1.031,0.399-2.189-0.113-2.588-1.144C13.571,425.885,14.083,424.726,15.114,424.327z"/>
				<path style="fill:#F6F2CF;" d="M10.321,411.943c1.031-0.399,2.19,0.113,2.588,1.144c0.399,1.031-0.113,2.189-1.144,2.588
					c-1.031,0.399-2.189-0.113-2.588-1.144C8.778,413.501,9.29,412.342,10.321,411.943z"/>
				<path style="fill:#F6F2CF;" d="M5.528,399.559c1.031-0.399,2.189,0.113,2.588,1.144c0.399,1.031-0.113,2.189-1.144,2.588
					c-1.031,0.399-2.189-0.113-2.588-1.144C3.985,401.117,4.497,399.958,5.528,399.559z"/>
				<path style="fill:#F6F2CF;" d="M0.734,387.175c1.031-0.399,2.19,0.113,2.588,1.144c0.399,1.031-0.113,2.189-1.144,2.588
					c-1.031,0.399-2.189-0.113-2.588-1.144C-0.808,388.732-0.296,387.574,0.734,387.175z"/>
				<path style="fill:#F6F2CF;" d="M-4.058,374.79c1.031-0.399,2.189,0.113,2.588,1.144c0.399,1.031-0.113,2.189-1.144,2.588
					c-1.031,0.399-2.19-0.113-2.588-1.144C-5.601,376.348-5.089,375.189-4.058,374.79z"/>
				<path style="fill:#F6F2CF;" d="M-8.851,362.406c1.031-0.399,2.189,0.113,2.588,1.144c0.399,1.031-0.113,2.189-1.144,2.588
					c-1.031,0.399-2.189-0.113-2.588-1.144C-10.394,363.964-9.882,362.805-8.851,362.406z"/>
				<path style="fill:#F6F2CF;" d="M-13.645,350.022c1.031-0.399,2.189,0.113,2.588,1.144c0.399,1.031-0.113,2.19-1.144,2.588
					c-1.031,0.399-2.189-0.113-2.588-1.144C-15.187,351.58-14.675,350.421-13.645,350.022z"/>
				<path style="fill:#F6F2CF;" d="M-18.438,337.638c1.031-0.399,2.189,0.113,2.588,1.144c0.399,1.031-0.113,2.189-1.144,2.588
					c-1.031,0.399-2.19-0.113-2.588-1.144C-19.98,339.196-19.468,338.037-18.438,337.638z"/>
				<path style="fill:#F6F2CF;" d="M-23.231,325.254c1.031-0.399,2.189,0.113,2.588,1.144c0.399,1.031-0.113,2.19-1.144,2.588
					c-1.031,0.399-2.189-0.113-2.588-1.144C-24.773,326.811-24.261,325.652-23.231,325.254z"/>
			</g>
			<g>
				<path style="fill:#F6F2CF;" d="M33.521,445.681c1.031-0.399,2.189,0.113,2.588,1.144c0.399,1.031-0.113,2.189-1.144,2.588
					c-1.031,0.399-2.189-0.113-2.588-1.144C31.979,447.239,32.491,446.08,33.521,445.681z"/>
				<path style="fill:#F6F2CF;" d="M28.728,433.297c1.031-0.399,2.19,0.113,2.588,1.144c0.399,1.031-0.113,2.19-1.144,2.588
					c-1.031,0.399-2.19-0.113-2.588-1.144C27.185,434.855,27.698,433.696,28.728,433.297z"/>
				<path style="fill:#F6F2CF;" d="M23.935,420.913c1.031-0.399,2.189,0.113,2.588,1.144c0.399,1.031-0.113,2.189-1.144,2.588
					c-1.031,0.399-2.189-0.113-2.588-1.144C22.392,422.471,22.905,421.312,23.935,420.913z"/>
				<path style="fill:#F6F2CF;" d="M19.142,408.529c1.031-0.399,2.189,0.113,2.588,1.144c0.399,1.031-0.113,2.189-1.144,2.588
					c-1.031,0.399-2.189-0.113-2.588-1.144C17.6,410.087,18.112,408.928,19.142,408.529z"/>
				<path style="fill:#F6F2CF;" d="M14.349,396.145c1.031-0.399,2.189,0.113,2.588,1.144c0.399,1.031-0.113,2.189-1.144,2.588
					c-1.031,0.399-2.189-0.113-2.588-1.144C12.806,397.702,13.319,396.544,14.349,396.145z"/>
				<path style="fill:#F6F2CF;" d="M9.556,383.76c1.031-0.399,2.189,0.113,2.588,1.144c0.399,1.031-0.113,2.189-1.144,2.588
					c-1.031,0.399-2.189-0.113-2.588-1.144C8.013,385.318,8.526,384.159,9.556,383.76z"/>
				<path style="fill:#F6F2CF;" d="M4.763,371.376c1.031-0.399,2.189,0.113,2.588,1.144c0.399,1.031-0.113,2.189-1.144,2.588
					s-2.19-0.113-2.588-1.144C3.22,372.934,3.733,371.775,4.763,371.376z"/>
				<path style="fill:#F6F2CF;" d="M-0.03,358.992c1.031-0.399,2.19,0.113,2.588,1.144c0.399,1.031-0.113,2.19-1.144,2.588
					c-1.031,0.399-2.19-0.113-2.588-1.144C-1.573,360.55-1.061,359.391-0.03,358.992z"/>
				<path style="fill:#F6F2CF;" d="M-4.823,346.608c1.031-0.399,2.189,0.113,2.588,1.144c0.399,1.031-0.113,2.189-1.144,2.588
					c-1.031,0.399-2.189-0.113-2.588-1.144C-6.366,348.166-5.854,347.007-4.823,346.608z"/>
				<path style="fill:#F6F2CF;" d="M-9.616,334.224c1.031-0.399,2.19,0.113,2.588,1.144c0.399,1.031-0.113,2.19-1.144,2.588
					s-2.189-0.113-2.588-1.144C-11.159,335.781-10.647,334.622-9.616,334.224z"/>
				<path style="fill:#F6F2CF;" d="M-14.409,321.839c1.031-0.399,2.19,0.113,2.588,1.144c0.399,1.031-0.113,2.189-1.144,2.588
					c-1.031,0.399-2.189-0.113-2.588-1.144S-15.44,322.238-14.409,321.839z"/>
			</g>
			<g>
				<path style="fill:#F6F2CF;" d="M42.343,442.267c1.031-0.399,2.189,0.113,2.588,1.144c0.399,1.031-0.113,2.189-1.144,2.588
					c-1.031,0.399-2.189-0.113-2.588-1.144C40.8,443.825,41.312,442.666,42.343,442.267z"/>
				<path style="fill:#F6F2CF;" d="M37.55,429.883c1.031-0.399,2.189,0.113,2.588,1.144c0.399,1.031-0.113,2.189-1.144,2.588
					s-2.189-0.113-2.588-1.144C36.007,431.441,36.519,430.282,37.55,429.883z"/>
				<path style="fill:#F6F2CF;" d="M32.757,417.499c1.031-0.399,2.189,0.113,2.588,1.144c0.399,1.031-0.113,2.189-1.144,2.588
					c-1.031,0.399-2.189-0.113-2.588-1.144C31.214,419.057,31.726,417.898,32.757,417.499z"/>
				<path style="fill:#F6F2CF;" d="M27.964,405.115c1.031-0.399,2.189,0.113,2.588,1.144c0.399,1.031-0.113,2.189-1.144,2.588
					c-1.031,0.399-2.189-0.113-2.588-1.144C26.421,406.672,26.933,405.514,27.964,405.115z"/>
				<path style="fill:#F6F2CF;" d="M23.171,392.73c1.031-0.399,2.19,0.113,2.588,1.144c0.399,1.031-0.113,2.19-1.144,2.588
					c-1.031,0.399-2.189-0.113-2.588-1.144C21.628,394.288,22.14,393.129,23.171,392.73z"/>
				<path style="fill:#F6F2CF;" d="M18.378,380.346c1.031-0.399,2.19,0.113,2.588,1.144c0.399,1.031-0.113,2.189-1.144,2.588
					c-1.031,0.399-2.19-0.113-2.588-1.144C16.835,381.904,17.347,380.745,18.378,380.346z"/>
				<path style="fill:#F6F2CF;" d="M13.585,367.962c1.031-0.399,2.189,0.113,2.588,1.144c0.399,1.031-0.113,2.19-1.144,2.588
					c-1.031,0.399-2.189-0.113-2.588-1.144C12.042,369.52,12.554,368.361,13.585,367.962z"/>
				<path style="fill:#F6F2CF;" d="M8.792,355.578c1.031-0.399,2.189,0.113,2.588,1.144c0.399,1.031-0.113,2.189-1.144,2.588
					c-1.031,0.399-2.19-0.113-2.588-1.144C7.249,357.136,7.761,355.977,8.792,355.578z"/>
				<path style="fill:#F6F2CF;" d="M3.999,343.194c1.031-0.399,2.19,0.113,2.588,1.144c0.399,1.031-0.113,2.19-1.144,2.588
					c-1.031,0.399-2.19-0.113-2.588-1.144C2.456,344.751,2.968,343.592,3.999,343.194z"/>
				<path style="fill:#F6F2CF;" d="M-0.794,330.809c1.031-0.399,2.189,0.113,2.588,1.144c0.399,1.031-0.113,2.189-1.144,2.588
					c-1.031,0.399-2.189-0.113-2.588-1.144S-1.825,331.208-0.794,330.809z"/>
				<path style="fill:#F6F2CF;" d="M-5.587,318.425c1.031-0.399,2.189,0.113,2.588,1.144c0.399,1.031-0.113,2.19-1.144,2.588
					c-1.031,0.399-2.189-0.113-2.588-1.144C-7.13,319.983-6.618,318.824-5.587,318.425z"/>
			</g>
			<g>
				<path style="fill:#F6F2CF;" d="M51.165,438.853c1.031-0.399,2.189,0.113,2.588,1.144c0.399,1.031-0.113,2.189-1.144,2.588
					c-1.031,0.399-2.189-0.113-2.588-1.144C49.622,440.411,50.134,439.252,51.165,438.853z"/>
				<path style="fill:#F6F2CF;" d="M46.372,426.469c1.031-0.399,2.189,0.113,2.588,1.144c0.399,1.031-0.113,2.189-1.144,2.588
					c-1.031,0.399-2.189-0.113-2.588-1.144C44.829,428.027,45.341,426.868,46.372,426.469z"/>
				<path style="fill:#F6F2CF;" d="M41.578,414.085c1.031-0.399,2.19,0.113,2.588,1.144c0.399,1.031-0.113,2.19-1.144,2.588
					c-1.031,0.399-2.189-0.113-2.588-1.144C40.036,415.642,40.548,414.484,41.578,414.085z"/>
				<path style="fill:#F6F2CF;" d="M36.785,401.701c1.031-0.399,2.189,0.113,2.588,1.144c0.399,1.031-0.113,2.19-1.144,2.588
					c-1.031,0.399-2.189-0.113-2.588-1.144C35.243,403.258,35.755,402.099,36.785,401.701z"/>
				<path style="fill:#F6F2CF;" d="M31.993,389.316c1.031-0.399,2.189,0.113,2.588,1.144c0.399,1.031-0.113,2.189-1.144,2.588
					c-1.031,0.399-2.189-0.113-2.588-1.144C30.45,390.874,30.962,389.715,31.993,389.316z"/>
				<path style="fill:#F6F2CF;" d="M27.199,376.932c1.031-0.399,2.19,0.113,2.588,1.144c0.399,1.031-0.113,2.19-1.144,2.588
					s-2.19-0.113-2.588-1.144C25.657,378.49,26.169,377.331,27.199,376.932z"/>
				<path style="fill:#F6F2CF;" d="M22.406,364.548c1.031-0.399,2.189,0.113,2.588,1.144c0.399,1.031-0.113,2.189-1.144,2.588
					c-1.031,0.399-2.19-0.113-2.588-1.144C20.864,366.106,21.376,364.947,22.406,364.548z"/>
				<path style="fill:#F6F2CF;" d="M17.613,352.164c1.031-0.399,2.189,0.113,2.588,1.144c0.399,1.031-0.113,2.19-1.144,2.588
					c-1.031,0.399-2.189-0.113-2.588-1.144C16.071,353.721,16.583,352.563,17.613,352.164z"/>
				<path style="fill:#F6F2CF;" d="M12.82,339.779c1.031-0.399,2.189,0.113,2.588,1.144c0.399,1.031-0.113,2.189-1.144,2.588
					c-1.031,0.399-2.189-0.113-2.588-1.144C11.278,341.337,11.79,340.178,12.82,339.779z"/>
				<path style="fill:#F6F2CF;" d="M8.027,327.395c1.031-0.399,2.189,0.113,2.588,1.144c0.399,1.031-0.113,2.19-1.144,2.588
					c-1.031,0.399-2.189-0.113-2.588-1.144C6.484,328.953,6.997,327.794,8.027,327.395z"/>
				<path style="fill:#F6F2CF;" d="M3.234,315.011c1.031-0.399,2.189,0.113,2.588,1.144c0.399,1.031-0.113,2.189-1.144,2.588
					c-1.031,0.399-2.189-0.113-2.588-1.144C1.691,316.569,2.204,315.41,3.234,315.011z"/>
			</g>
			<g>
				<path style="fill:#F6F2CF;" d="M59.986,435.439c1.031-0.399,2.19,0.113,2.588,1.144c0.399,1.031-0.113,2.189-1.144,2.588
					c-1.031,0.399-2.189-0.113-2.588-1.144C58.444,436.997,58.956,435.838,59.986,435.439z"/>
				<path style="fill:#F6F2CF;" d="M55.193,423.055c1.031-0.399,2.19,0.113,2.588,1.144c0.399,1.031-0.113,2.19-1.144,2.588
					c-1.031,0.399-2.189-0.113-2.588-1.144C53.65,424.612,54.163,423.453,55.193,423.055z"/>
				<path style="fill:#F6F2CF;" d="M50.4,410.671c1.031-0.399,2.189,0.113,2.588,1.144c0.399,1.031-0.113,2.19-1.144,2.588
					c-1.031,0.399-2.189-0.113-2.588-1.144C48.857,412.228,49.369,411.069,50.4,410.671z"/>
				<path style="fill:#F6F2CF;" d="M45.607,398.286c1.031-0.399,2.189,0.113,2.588,1.144c0.399,1.031-0.113,2.189-1.144,2.588
					c-1.031,0.399-2.19-0.113-2.588-1.144C44.064,399.844,44.576,398.685,45.607,398.286z"/>
				<path style="fill:#F6F2CF;" d="M40.814,385.902c1.031-0.399,2.19,0.113,2.588,1.144c0.399,1.031-0.113,2.19-1.144,2.588
					c-1.031,0.399-2.189-0.113-2.588-1.144C39.271,387.46,39.783,386.301,40.814,385.902z"/>
				<path style="fill:#F6F2CF;" d="M36.021,373.518c1.031-0.399,2.189,0.113,2.588,1.144c0.399,1.031-0.113,2.189-1.144,2.588
					c-1.031,0.399-2.189-0.113-2.588-1.144C34.478,375.076,34.99,373.917,36.021,373.518z"/>
				<path style="fill:#F6F2CF;" d="M31.228,361.134c1.031-0.399,2.189,0.113,2.588,1.144c0.399,1.031-0.113,2.19-1.144,2.588
					c-1.031,0.399-2.19-0.113-2.588-1.144C29.685,362.691,30.197,361.533,31.228,361.134z"/>
				<path style="fill:#F6F2CF;" d="M26.435,348.749c1.031-0.399,2.19,0.113,2.588,1.144c0.399,1.031-0.113,2.189-1.144,2.588
					c-1.031,0.399-2.189-0.113-2.588-1.144C24.892,350.307,25.404,349.148,26.435,348.749z"/>
				<path style="fill:#F6F2CF;" d="M21.642,336.365c1.031-0.399,2.19,0.113,2.588,1.144c0.399,1.031-0.113,2.189-1.144,2.588
					c-1.031,0.399-2.189-0.113-2.588-1.144C20.099,337.923,20.611,336.764,21.642,336.365z"/>
				<path style="fill:#F6F2CF;" d="M16.849,323.981c1.031-0.399,2.19,0.113,2.588,1.144c0.399,1.031-0.113,2.189-1.144,2.588
					s-2.189-0.113-2.588-1.144C15.306,325.539,15.818,324.38,16.849,323.981z"/>
				<path style="fill:#F6F2CF;" d="M12.056,311.597c1.031-0.399,2.19,0.113,2.588,1.144c0.399,1.031-0.113,2.189-1.144,2.588
					c-1.031,0.399-2.189-0.113-2.588-1.144C10.513,313.155,11.025,311.996,12.056,311.597z"/>
			</g>
			<g>
				<path style="fill:#F6F2CF;" d="M68.808,432.025c1.031-0.399,2.189,0.113,2.588,1.144c0.399,1.031-0.113,2.19-1.144,2.588
					s-2.189-0.113-2.588-1.144C67.265,433.582,67.777,432.423,68.808,432.025z"/>
				<path style="fill:#F6F2CF;" d="M64.015,419.64c1.031-0.399,2.189,0.113,2.588,1.144c0.399,1.031-0.113,2.189-1.144,2.588
					c-1.031,0.399-2.189-0.113-2.588-1.144C62.472,421.198,62.984,420.039,64.015,419.64z"/>
				<path style="fill:#F6F2CF;" d="M59.222,407.256c1.031-0.399,2.189,0.113,2.588,1.144c0.399,1.031-0.113,2.19-1.144,2.588
					c-1.031,0.399-2.19-0.113-2.588-1.144S58.191,407.655,59.222,407.256z"/>
				<path style="fill:#F6F2CF;" d="M54.429,394.872c1.031-0.399,2.189,0.113,2.588,1.144c0.399,1.031-0.113,2.19-1.144,2.588
					c-1.031,0.399-2.189-0.113-2.588-1.144C52.886,396.43,53.398,395.271,54.429,394.872z"/>
				<path style="fill:#F6F2CF;" d="M49.636,382.488c1.031-0.399,2.189,0.113,2.588,1.144c0.399,1.031-0.113,2.189-1.144,2.588
					c-1.031,0.399-2.189-0.113-2.588-1.144C48.093,384.046,48.605,382.887,49.636,382.488z"/>
				<path style="fill:#F6F2CF;" d="M44.843,370.104c1.031-0.399,2.189,0.113,2.588,1.144c0.399,1.031-0.113,2.19-1.144,2.588
					c-1.031,0.399-2.19-0.113-2.588-1.144C43.3,371.661,43.812,370.503,44.843,370.104z"/>
				<path style="fill:#F6F2CF;" d="M40.05,357.719c1.031-0.399,2.19,0.113,2.588,1.144c0.399,1.031-0.113,2.189-1.144,2.588
					c-1.031,0.399-2.189-0.113-2.588-1.144C38.507,359.277,39.019,358.118,40.05,357.719z"/>
				<path style="fill:#F6F2CF;" d="M35.257,345.335c1.031-0.399,2.189,0.113,2.588,1.144c0.399,1.031-0.113,2.189-1.144,2.588
					c-1.031,0.399-2.189-0.113-2.588-1.144C33.714,346.893,34.226,345.734,35.257,345.335z"/>
				<path style="fill:#F6F2CF;" d="M30.464,332.951c1.031-0.399,2.189,0.113,2.588,1.144c0.399,1.031-0.113,2.189-1.144,2.588
					c-1.031,0.399-2.19-0.113-2.588-1.144C28.921,334.509,29.433,333.35,30.464,332.951z"/>
				<path style="fill:#F6F2CF;" d="M25.67,320.567c1.031-0.399,2.19,0.113,2.588,1.144c0.399,1.031-0.113,2.189-1.144,2.588
					c-1.031,0.399-2.189-0.113-2.588-1.144C24.128,322.125,24.64,320.966,25.67,320.567z"/>
				<path style="fill:#F6F2CF;" d="M20.878,308.183c1.031-0.399,2.189,0.113,2.588,1.144c0.399,1.031-0.113,2.19-1.144,2.588
					c-1.031,0.399-2.19-0.113-2.588-1.144C19.335,309.74,19.847,308.582,20.878,308.183z"/>
			</g>
		</g>
		<g style="clip-path:url(#SVGID_00000081617658473824597130000000477340533327824022_);">
			<circle style="fill:none;stroke:#6FD1C9;stroke-width:1.5;stroke-miterlimit:10;" cx="753.606" cy="306.674" r="88.414"/>
			<circle style="fill:none;stroke:#6FD1C9;stroke-width:1.5;stroke-miterlimit:10;" cx="753.606" cy="306.674" r="63.477"/>
			<circle style="fill:none;stroke:#6FD1C9;stroke-width:1.5;stroke-miterlimit:10;" cx="753.606" cy="306.674" r="36.505"/>
		</g>
		<g style="clip-path:url(#SVGID_00000081617658473824597130000000477340533327824022_);">
			<polygon style="fill:#F6F2CF;" points="698.333,407.146 707.792,413.27 707.792,401.022 			"/>
			<polygon style="fill:#F6F2CF;" points="674.748,407.146 684.207,413.27 684.207,401.022 			"/>
			<polygon style="fill:#F6F2CF;" points="651.163,407.146 660.621,413.27 660.621,401.022 			"/>
			<polygon style="fill:#F6F2CF;" points="627.578,407.146 637.036,413.27 637.036,401.022 			"/>
			<polygon style="fill:#F6F2CF;" points="603.993,407.146 613.451,413.27 613.451,401.022 			"/>
		</g>
		<g style="clip-path:url(#SVGID_00000081617658473824597130000000477340533327824022_);">
			<g>
				<polygon style="fill:#6FD1C9;" points="579.17,38.656 605.885,55.954 605.885,21.358 				"/>
			</g>
			<g>
				
					<polygon style="fill:none;stroke:#F6F2CF;stroke-width:1.5;stroke-linecap:round;stroke-linejoin:round;stroke-miterlimit:10;" points="
					594.554,38.656 621.27,55.954 621.27,21.358 				"/>
			</g>
		</g>
		<g style="clip-path:url(#SVGID_00000081617658473824597130000000477340533327824022_);">
			<g>
				<polygon style="fill:#6FD1C9;" points="501.077,500.633 438.445,541.187 438.445,460.078 				"/>
			</g>
			<g>
				
					<polygon style="fill:none;stroke:#F6F2CF;stroke-width:1.5;stroke-linecap:round;stroke-linejoin:round;stroke-miterlimit:10;" points="
					465.009,500.633 402.378,541.187 402.378,460.078 				"/>
			</g>
		</g>
		<g style="clip-path:url(#SVGID_00000081617658473824597130000000477340533327824022_);">
			<g>
				<polygon style="fill:#6FD1C9;" points="681.272,223.52 651.711,204.38 651.711,242.661 				"/>
			</g>
			<g>
				
					<polygon style="fill:none;stroke:#F6F2CF;stroke-width:1.5;stroke-linecap:round;stroke-linejoin:round;stroke-miterlimit:10;" points="
					664.249,223.52 634.688,204.38 634.688,242.661 				"/>
			</g>
		</g>
		<g style="opacity:0.7;clip-path:url(#SVGID_00000081617658473824597130000000477340533327824022_);">
			<path style="fill:none;stroke:#F6F2CF;stroke-width:1.5;stroke-linecap:round;stroke-linejoin:round;stroke-miterlimit:10;" d="
				M45.751,230.549c-1.762,1.762-4.62,1.762-6.382,0L-75.564,115.616c-1.762-1.762-1.762-4.62,0-6.382l0,0
				c1.762-1.762,4.62-1.762,6.382,0L45.751,224.167C47.514,225.929,47.514,228.786,45.751,230.549L45.751,230.549z"/>
			<path style="fill:none;stroke:#F6F2CF;stroke-width:1.5;stroke-linecap:round;stroke-linejoin:round;stroke-miterlimit:10;" d="
				M71.348,230.549c-1.762,1.762-4.62,1.762-6.382,0L-49.967,115.616c-1.762-1.762-1.762-4.62,0-6.382l0,0
				c1.762-1.762,4.62-1.762,6.382,0L71.348,224.167C73.11,225.929,73.11,228.786,71.348,230.549L71.348,230.549z"/>
			<path style="fill:none;stroke:#F6F2CF;stroke-width:1.5;stroke-linecap:round;stroke-linejoin:round;stroke-miterlimit:10;" d="
				M96.945,230.549c-1.763,1.762-4.62,1.762-6.382,0L-24.37,115.616c-1.762-1.762-1.762-4.62,0-6.382l0,0
				c1.762-1.762,4.62-1.762,6.382,0L96.945,224.167C98.707,225.929,98.707,228.786,96.945,230.549L96.945,230.549z"/>
		</g>
		<g style="clip-path:url(#SVGID_00000081617658473824597130000000477340533327824022_);">
			<path style="fill:#6FD1C9;" d="M227.498,38.999c-1.556,1.556-4.078,1.556-5.634,0l-72.655-72.655
				c-1.556-1.556-1.556-4.078,0-5.634l0,0c1.556-1.556,4.078-1.556,5.634,0l72.655,72.655
				C229.053,34.921,229.053,37.444,227.498,38.999L227.498,38.999z"/>
			<path style="fill:#6FD1C9;" d="M250.093,38.999c-1.556,1.556-4.078,1.556-5.634,0l-72.655-72.655
				c-1.556-1.556-1.556-4.078,0-5.634l0,0c1.556-1.556,4.078-1.556,5.634,0l72.655,72.655
				C251.649,34.921,251.649,37.444,250.093,38.999L250.093,38.999z"/>
			<path style="fill:#6FD1C9;" d="M272.689,38.999c-1.556,1.556-4.078,1.556-5.634,0L194.4-33.656c-1.556-1.556-1.556-4.078,0-5.634
				l0,0c1.556-1.556,4.078-1.556,5.634,0l72.655,72.655C274.245,34.921,274.245,37.444,272.689,38.999L272.689,38.999z"/>
		</g>
		<g style="clip-path:url(#SVGID_00000081617658473824597130000000477340533327824022_);">
			
				<circle style="fill:none;stroke:#F6F2CF;stroke-width:1.5;stroke-linecap:round;stroke-linejoin:round;stroke-miterlimit:10;" cx="511.944" cy="379.139" r="19.501"/>
			<circle style="fill:#6FD1C9;" cx="511.944" cy="379.139" r="7.682"/>
		</g>
		<g style="clip-path:url(#SVGID_00000081617658473824597130000000477340533327824022_);">
			
				<ellipse transform="matrix(0.7071 -0.7071 0.7071 0.7071 -51.6568 116.092)" style="fill:none;stroke:#F6F2CF;stroke-width:1.5;stroke-linecap:round;stroke-linejoin:round;stroke-miterlimit:10;" cx="114.307" cy="120.401" rx="10.491" ry="10.491"/>
			<path style="fill:#6FD1C9;" d="M118.44,120.401c0,2.282-1.85,4.133-4.133,4.133c-2.283,0-4.133-1.85-4.133-4.133
				s1.85-4.133,4.133-4.133C116.59,116.269,118.44,118.119,118.44,120.401z"/>
		</g>
		<g style="clip-path:url(#SVGID_00000081617658473824597130000000477340533327824022_);">
			
				<ellipse transform="matrix(0.9239 -0.3827 0.3827 0.9239 -177.1062 56.8968)" style="fill:none;stroke:#F6F2CF;stroke-width:1.5;stroke-linecap:round;stroke-linejoin:round;stroke-miterlimit:10;" cx="54.466" cy="473.634" rx="10.501" ry="10.501"/>
			<circle style="fill:#6FD1C9;" cx="54.466" cy="473.634" r="4.137"/>
		</g>
		<g style="clip-path:url(#SVGID_00000081617658473824597130000000477340533327824022_);">
			
				<circle style="fill:none;stroke:#F6F2CF;stroke-width:1.5;stroke-linecap:round;stroke-linejoin:round;stroke-miterlimit:10;" cx="688.935" cy="499.133" r="22.501"/>
			<circle style="fill:#6FD1C9;" cx="688.935" cy="499.133" r="8.864"/>
		</g>
		<g style="clip-path:url(#SVGID_00000081617658473824597130000000477340533327824022_);">
			
				<ellipse transform="matrix(0.2627 -0.9649 0.9649 0.2627 -48.4777 124.8627)" style="fill:none;stroke:#6FD1C9;stroke-width:1.5;stroke-miterlimit:10;" cx="57.466" cy="94.153" rx="26.518" ry="26.518"/>
			
				<ellipse transform="matrix(0.1961 -0.9806 0.9806 0.1961 -46.1286 132.0387)" style="fill:#F6F2CF;" cx="57.466" cy="94.153" rx="10.446" ry="10.446"/>
		</g>
		<g style="clip-path:url(#SVGID_00000081617658473824597130000000477340533327824022_);">
			<circle style="fill:none;stroke:#6FD1C9;stroke-width:1.5;stroke-miterlimit:10;" cx="533.208" cy="0.265" r="25.391"/>
			<circle style="fill:#F6F2CF;" cx="533.208" cy="0.265" r="10.003"/>
		</g>
		<g style="clip-path:url(#SVGID_00000081617658473824597130000000477340533327824022_);">
			
				<rect x="96.198" y="443.064" transform="matrix(0.7071 -0.7071 0.7071 0.7071 -291.2557 212.6112)" style="fill:#6FD1C9;" width="29.635" height="29.635"/>
			
				<rect x="96.198" y="422.073" transform="matrix(0.7071 -0.7071 0.7071 0.7071 -276.4127 206.463)" style="fill:none;stroke:#F6F2CF;stroke-width:1.5;stroke-linecap:round;stroke-linejoin:round;stroke-miterlimit:10;" width="29.635" height="29.635"/>
		</g>
		<g style="clip-path:url(#SVGID_00000081617658473824597130000000477340533327824022_);">
			
				<rect x="226.127" y="62.783" transform="matrix(0.7071 -0.7071 0.7071 0.7071 18.6685 185.9347)" style="fill:#6FD1C9;" width="15.3" height="15.3"/>
			
				<rect x="226.127" y="51.945" transform="matrix(0.7071 -0.7071 0.7071 0.7071 26.3316 182.7605)" style="fill:none;stroke:#F6F2CF;stroke-width:1.5;stroke-linecap:round;stroke-linejoin:round;stroke-miterlimit:10;" width="15.3" height="15.3"/>
		</g>
		<g style="clip-path:url(#SVGID_00000081617658473824597130000000477340533327824022_);">
			
				<rect x="642.754" y="369.928" transform="matrix(0.7071 -0.7071 0.7071 0.7071 -76.4891 570.4953)" style="fill:#6FD1C9;" width="15.3" height="15.3"/>
			
				<rect x="642.754" y="359.091" transform="matrix(0.7071 -0.7071 0.7071 0.7071 -68.826 567.3211)" style="fill:none;stroke:#F6F2CF;stroke-width:1.5;stroke-linecap:round;stroke-linejoin:round;stroke-miterlimit:10;" width="15.3" height="15.3"/>
		</g>
		<g style="clip-path:url(#SVGID_00000081617658473824597130000000477340533327824022_);">
			
				<rect x="-18.593" y="20.04" transform="matrix(0.7071 -0.7071 0.7071 0.7071 -27.9478 12.8366)" style="fill:#6FD1C9;" width="40.228" height="40.228"/>
			
				<rect x="-18.593" y="-8.455" transform="matrix(0.7071 -0.7071 0.7071 0.7071 -7.7987 4.4905)" style="fill:none;stroke:#F6F2CF;stroke-width:1.5;stroke-linecap:round;stroke-linejoin:round;stroke-miterlimit:10;" width="40.228" height="40.228"/>
		</g>
		<g style="opacity:0.4;clip-path:url(#SVGID_00000081617658473824597130000000477340533327824022_);">
			<path style="fill:#6FD1C9;" d="M742.617,600.908c-0.856,0.856-2.244,0.856-3.1,0L576.304,437.695c-0.856-0.856-0.856-2.244,0-3.1
				l0,0c0.856-0.856,2.244-0.856,3.1,0l163.213,163.213C743.473,598.664,743.473,600.052,742.617,600.908L742.617,600.908z"/>
			<path style="fill:#6FD1C9;" d="M758.051,600.908c-0.856,0.856-2.244,0.856-3.1,0L591.738,437.695c-0.856-0.856-0.856-2.244,0-3.1
				l0,0c0.856-0.856,2.244-0.856,3.1,0l163.213,163.213C758.907,598.664,758.907,600.052,758.051,600.908L758.051,600.908z"/>
			<path style="fill:#6FD1C9;" d="M773.485,600.908c-0.856,0.856-2.244,0.856-3.1,0L607.172,437.695c-0.856-0.856-0.856-2.244,0-3.1
				l0,0c0.856-0.856,2.244-0.856,3.1,0l163.213,163.213C774.341,598.664,774.341,600.052,773.485,600.908L773.485,600.908z"/>
		</g>
		<path style="clip-path:url(#SVGID_00000081617658473824597130000000477340533327824022_);fill:#F6F2CF;" d="M78.5,166.15
			c0,1.282-1.039,2.321-2.321,2.321s-2.321-1.039-2.321-2.321c0-1.282,1.039-2.321,2.321-2.321S78.5,164.868,78.5,166.15z"/>
		<path style="clip-path:url(#SVGID_00000081617658473824597130000000477340533327824022_);fill:#F6F2CF;" d="M694.255,212.647
			c0,1.282-1.039,2.321-2.321,2.321s-2.321-1.039-2.321-2.321c0-1.282,1.039-2.321,2.321-2.321S694.255,211.366,694.255,212.647z"/>
		
			<circle style="clip-path:url(#SVGID_00000081617658473824597130000000477340533327824022_);fill:#F6F2CF;" cx="644.772" cy="49.751" r="2.176"/>
		<path style="clip-path:url(#SVGID_00000081617658473824597130000000477340533327824022_);fill:#F6F2CF;" d="M95.485,389.948
			c0,0.801-0.649,1.451-1.451,1.451s-1.451-0.649-1.451-1.451c0-0.801,0.649-1.451,1.451-1.451S95.485,389.147,95.485,389.948z"/>
		
			<circle style="clip-path:url(#SVGID_00000081617658473824597130000000477340533327824022_);fill:#F6F2CF;" cx="613.561" cy="366.297" r="1.451"/>
		<path style="clip-path:url(#SVGID_00000081617658473824597130000000477340533327824022_);fill:#F6F2CF;" d="M683.389,239.355
			c0,0.801-0.649,1.45-1.451,1.45s-1.451-0.649-1.451-1.45c0-0.801,0.65-1.451,1.451-1.451S683.389,238.553,683.389,239.355z"/>
		<path style="clip-path:url(#SVGID_00000081617658473824597130000000477340533327824022_);fill:#F6F2CF;" d="M620.643,95.996
			c0,0.801-0.649,1.451-1.451,1.451s-1.451-0.649-1.451-1.451s0.65-1.451,1.451-1.451S620.643,95.195,620.643,95.996z"/>
		<path style="clip-path:url(#SVGID_00000081617658473824597130000000477340533327824022_);fill:#F6F2CF;" d="M114.956,17.158
			c0,0.801-0.649,1.451-1.451,1.451c-0.801,0-1.451-0.649-1.451-1.451s0.65-1.45,1.451-1.45
			C114.306,15.708,114.956,16.357,114.956,17.158z"/>
		
			<circle style="clip-path:url(#SVGID_00000081617658473824597130000000477340533327824022_);fill:#F6F2CF;" cx="10.692" cy="226.966" r="1.451"/>
		<path style="clip-path:url(#SVGID_00000081617658473824597130000000477340533327824022_);fill:#F6F2CF;" d="M140.783,405.317
			c0,1.282-1.039,2.321-2.321,2.321s-2.321-1.039-2.321-2.321c0-1.282,1.039-2.321,2.321-2.321S140.783,404.035,140.783,405.317z"/>
		<path style="clip-path:url(#SVGID_00000081617658473824597130000000477340533327824022_);fill:#F6F2CF;" d="M281.776,12.478
			c0,1.282-1.039,2.321-2.321,2.321c-1.282,0-2.321-1.039-2.321-2.321s1.039-2.321,2.321-2.321
			C280.737,10.157,281.776,11.196,281.776,12.478z"/>
		<path style="clip-path:url(#SVGID_00000081617658473824597130000000477340533327824022_);fill:#F6F2CF;" d="M563.083,29.656
			c0,1.282-1.039,2.321-2.321,2.321c-1.282,0-2.321-1.039-2.321-2.321c0-1.282,1.039-2.321,2.321-2.321
			C562.044,27.336,563.083,28.375,563.083,29.656z"/>
		<path style="clip-path:url(#SVGID_00000081617658473824597130000000477340533327824022_);fill:#F6F2CF;" d="M671.757,442.136
			c0,1.282-1.039,2.321-2.321,2.321c-1.282,0-2.321-1.039-2.321-2.321c0-1.282,1.039-2.321,2.321-2.321
			C670.717,439.815,671.757,440.854,671.757,442.136z"/>
		<path style="clip-path:url(#SVGID_00000081617658473824597130000000477340533327824022_);fill:#F6F2CF;" d="M557.762,429.315
			c0,1.282-1.039,2.321-2.321,2.321c-1.282,0-2.321-1.039-2.321-2.321c0-1.282,1.039-2.321,2.321-2.321
			C556.723,426.995,557.762,428.034,557.762,429.315z"/>
		<path style="opacity:0.4;clip-path:url(#SVGID_00000081617658473824597130000000477340533327824022_);fill:#F6F2CF;" d="
			M166.862,468.314c0,1.602-1.299,2.901-2.901,2.901s-2.901-1.299-2.901-2.901s1.299-2.901,2.901-2.901
			S166.862,466.711,166.862,468.314z"/>
		<path style="opacity:0.4;clip-path:url(#SVGID_00000081617658473824597130000000477340533327824022_);fill:#F6F2CF;" d="
			M61.867,337.24c0,1.602-1.299,2.901-2.901,2.901s-2.901-1.299-2.901-2.901s1.299-2.901,2.901-2.901S61.867,335.638,61.867,337.24z
			"/>
		
			<circle style="opacity:0.2;clip-path:url(#SVGID_00000081617658473824597130000000477340533327824022_);fill:#F6F2CF;" cx="160.483" cy="98.249" r="21.301"/>
		
			<circle style="opacity:0.2;clip-path:url(#SVGID_00000081617658473824597130000000477340533327824022_);fill:#F6F2CF;" cx="422.9" cy="418.104" r="19.049"/>
		<path style="opacity:0.4;clip-path:url(#SVGID_00000081617658473824597130000000477340533327824022_);fill:#F6F2CF;" d="
			M516.295,113.553c0,2.403-1.948,4.352-4.352,4.352c-2.403,0-4.352-1.948-4.352-4.352c0-2.403,1.948-4.352,4.352-4.352
			C514.347,109.202,516.295,111.15,516.295,113.553z"/>
		
			<circle style="opacity:0.4;clip-path:url(#SVGID_00000081617658473824597130000000477340533327824022_);fill:#F6F2CF;" cx="159.461" cy="1.306" r="9.791"/>
		
			<ellipse transform="matrix(0.229 -0.9734 0.9734 0.229 408.2415 813.235)" style="clip-path:url(#SVGID_00000081617658473824597130000000477340533327824022_);fill:#6FD1C9;" cx="717.504" cy="148.901" rx="7.506" ry="7.506"/>
		
			<ellipse transform="matrix(0.5969 -0.8023 0.8023 0.5969 -266.5479 206.7252)" style="clip-path:url(#SVGID_00000081617658473824597130000000477340533327824022_);fill:#6FD1C9;" cx="72.466" cy="368.64" rx="7.506" ry="7.506"/>
		
			<circle style="clip-path:url(#SVGID_00000081617658473824597130000000477340533327824022_);fill:#6FD1C9;" cx="577.94" cy="397.138" r="9.383"/>
		<path style="clip-path:url(#SVGID_00000081617658473824597130000000477340533327824022_);fill:#F6F2CF;" d="M85.237,52.155
			c0,2.083-1.688,3.771-3.771,3.771c-2.083,0-3.771-1.688-3.771-3.771c0-2.083,1.688-3.771,3.771-3.771
			C83.548,48.384,85.237,50.072,85.237,52.155z"/>
		<path style="clip-path:url(#SVGID_00000081617658473824597130000000477340533327824022_);fill:#F6F2CF;" d="M640.209,325.142
			c0,2.083-1.688,3.771-3.771,3.771c-2.083,0-3.771-1.688-3.771-3.771c0-2.083,1.688-3.771,3.771-3.771
			C638.52,321.37,640.209,323.059,640.209,325.142z"/>
		<path style="clip-path:url(#SVGID_00000081617658473824597130000000477340533327824022_);fill:#F6F2CF;" d="M733.932,482.634
			c0,2.083-1.688,3.771-3.771,3.771c-2.083,0-3.771-1.689-3.771-3.771c0-2.083,1.689-3.771,3.771-3.771
			C732.244,478.862,733.932,480.551,733.932,482.634z"/>
		
			<circle style="opacity:0.6;clip-path:url(#SVGID_00000081617658473824597130000000477340533327824022_);fill:#2570B0;" cx="55.966" cy="31.156" r="9.138"/>
		
			<circle style="opacity:0.6;clip-path:url(#SVGID_00000081617658473824597130000000477340533327824022_);fill:#2570B0;" cx="736.212" cy="444.383" r="24.564"/>
		
			<circle style="opacity:0.6;clip-path:url(#SVGID_00000081617658473824597130000000477340533327824022_);fill:#2570B0;" cx="194.485" cy="501.822" r="24.564"/>
		
			<ellipse transform="matrix(0.1752 -0.9845 0.9845 0.1752 521.8157 663.9374)" style="opacity:0.6;clip-path:url(#SVGID_00000081617658473824597130000000477340533327824022_);fill:#2570B0;" cx="657.161" cy="20.537" rx="13.788" ry="13.788"/>
		<g style="clip-path:url(#SVGID_00000081617658473824597130000000477340533327824022_);">
			<g>
				<polygon style="fill:#6FD1C9;" points="753.263,-0.342 699.897,34.213 699.897,-34.897 				"/>
			</g>
			<g>
				
					<polygon style="fill:none;stroke:#F6F2CF;stroke-width:1.5;stroke-linecap:round;stroke-linejoin:round;stroke-miterlimit:10;" points="
					722.531,-0.342 669.165,34.213 669.165,-34.897 				"/>
			</g>
		</g>
	</g>
</g>
</svg>
