<?xml version="1.0" encoding="utf-8"?>
<!-- Generator: Adobe Illustrator 27.5.0, SVG Export Plug-In . SVG Version: 6.00 Build 0)  -->
<svg version="1.1" xmlns="http://www.w3.org/2000/svg" xmlns:xlink="http://www.w3.org/1999/xlink" x="0px" y="0px"
	 viewBox="0 0 92.394 75.125" style="enable-background:new 0 0 92.394 75.125;" xml:space="preserve">
<g id="Layer_2">
</g>
<g id="Layer_1">
	<rect x="0" style="fill-rule:evenodd;clip-rule:evenodd;fill:#F5F5F5;" width="92.394" height="75.125"/>
	
		<radialGradient id="SVGID_1_" cx="45.2312" cy="-0.1947" r="11.8777" fx="46.8451" fy="9.5921" gradientTransform="matrix(0.8682 0.0377 -0.0188 0.4608 0.4314 39.6779)" gradientUnits="userSpaceOnUse">
		<stop  offset="0" style="stop-color:#4F4F4F"/>
		<stop  offset="0.1013" style="stop-color:#717171"/>
		<stop  offset="0.2474" style="stop-color:#9C9C9C"/>
		<stop  offset="0.3959" style="stop-color:#C0C0C0"/>
		<stop  offset="0.5449" style="stop-color:#DCDCDC"/>
		<stop  offset="0.6946" style="stop-color:#EFEFEF"/>
		<stop  offset="0.8456" style="stop-color:#FBFBFB"/>
		<stop  offset="1" style="stop-color:#FFFFFF"/>
	</radialGradient>
	<path style="opacity:0.96;fill:url(#SVGID_1_);" d="M51.892,42.545c-0.147,3.479-5.566,6.07-12.116,5.791
		c-6.551-0.283-11.742-3.338-11.606-6.814c0.146-3.477,5.57-6.063,12.119-5.786C46.837,36.025,52.032,39.074,51.892,42.545z"/>
	<g>
		<path style="fill:#1E71B8;" d="M26.526,54.743c-0.892,0-1.247-0.469-1.255-1.342v-3.445h-0.554v-0.831h0.554v-1.938h1.108v1.938
			h0.831v0.831h-0.831v3.232c0,0.395,0.06,0.645,0.459,0.645c0.104,0,0.272-0.026,0.372-0.043v0.9
			C26.933,54.724,26.795,54.743,26.526,54.743z"/>
		<path style="fill:#1E71B8;" d="M30.421,49.047c0.489,0,0.796,0.412,0.796,0.896v4.722h-1.108v-4.153
			c0-0.334-0.039-0.555-0.381-0.555c-0.312,0-0.545,0.173-0.726,0.324v4.384h-1.108v-7.755h1.108v2.813
			C29.391,49.368,29.759,49.047,30.421,49.047z"/>
		<path style="fill:#1E71B8;" d="M33.745,53.833c0.558,0,0.558-0.55,0.558-1.107h1.104c0,1.277-0.458,2.018-1.666,2.018
			c-1.511,0-1.658-1.407-1.658-2.978c0-1.502,0.217-2.719,1.662-2.719c1.445,0,1.662,1.217,1.662,2.719v0.129h-2.216v0.276
			C33.191,52.812,33.121,53.833,33.745,53.833z M33.745,49.956c-0.571,0-0.554,0.814-0.554,1.385h1.108
			C34.299,50.765,34.312,49.956,33.745,49.956z"/>
		<path style="fill:#1E71B8;" d="M37.688,46.909h1.108v6.924h1.939v0.831h-3.046V46.909z"/>
		<path style="fill:#1E71B8;" d="M44.118,50.787v2.493c0,0.566,0.035,0.99,0.144,1.384h-1.103l-0.148-0.831
			c-0.221,0.438-0.467,0.91-1.107,0.91c-0.641,0-1.108-0.658-1.108-1.304c0-1.44,1.147-1.835,2.216-2.254v-0.398
			c0-0.489-0.091-0.884-0.554-0.884c-0.455,0-0.554,0.398-0.554,0.884h-1.108c0.013-1.048,0.61-1.74,1.662-1.74
			C43.508,49.047,44.118,49.758,44.118,50.787z M41.903,53.146c0,0.415,0.156,0.688,0.554,0.688c0.268,0,0.438-0.25,0.554-0.406
			v-1.532C42.574,52.189,41.903,52.476,41.903,53.146z"/>
		<path style="fill:#1E71B8;" d="M45.815,54.743c-0.493,0-0.805-0.403-0.805-0.896v-4.722h1.108v4.384
			c0,0.229,0.155,0.39,0.381,0.39c0.325,0,0.541-0.237,0.727-0.39v-4.384h1.107v5.539h-1.107v-0.597
			C46.833,54.417,46.478,54.743,45.815,54.743z"/>
		<path style="fill:#1E71B8;" d="M51.874,49.047c0.489,0,0.797,0.412,0.797,0.896v4.722h-1.108v-4.153
			c0-0.351-0.056-0.555-0.415-0.555c-0.313,0-0.51,0.173-0.692,0.324v4.384h-1.107v-5.539h1.107v0.597
			C50.845,49.368,51.212,49.047,51.874,49.047z"/>
		<path style="fill:#1E71B8;" d="M56.029,49.676v-2.763h1.107v7.751h-1.107v-0.502c-0.256,0.265-0.606,0.581-1.109,0.581
			c-1.111,0-1.384-1.455-1.384-2.575c0-1.45-0.017-3.121,1.367-3.121C55.427,49.047,55.738,49.368,56.029,49.676z M55.198,53.833
			c0.286,0,0.583-0.072,0.831-0.172v-3.484c-0.203-0.122-0.525-0.221-0.831-0.221c-0.65,0-0.555,0.992-0.555,1.658
			C54.644,52.37,54.527,53.833,55.198,53.833z"/>
		<path style="fill:#1E71B8;" d="M60.466,49.047c0.056,0,0.095,0.009,0.177,0.018v1.225c-0.165-0.067-0.398-0.122-0.616-0.122
			c-0.458,0-0.769,0.3-0.769,0.757v3.739H58.15v-5.539h1.107v0.739C59.457,49.48,59.895,49.047,60.466,49.047z"/>
		<path style="fill:#1E71B8;" d="M61.975,54.414l-1.254-5.289h1.107c0.235,1.294,0.476,2.575,0.696,3.877
			c0.209-1.314,0.459-2.583,0.689-3.877h1.107l-1.384,5.815c-0.201,0.861-0.874,1.108-1.939,1.108v-0.83
			C61.568,55.219,61.975,54.976,61.975,54.414z"/>
	</g>
	<g>
		<path style="fill-rule:evenodd;clip-rule:evenodd;fill:#1E71B8;" d="M37.535,40.949c1.123-1.568,3.771-2.17,4.975-0.281
			c0.321,0.48,0.441,1.041,0.36,1.686c-0.121,0.961-0.922,1.686-1.925,1.725c-1.042,0-2.006-1.123-1.404-2.127
			c0.2-0.242,0.4-0.4,0.681-0.4c0.843-0.041,0.401,0.762,0.603,1.164c0.12,0.24,0.562,0,0.722-0.281
			c0.281-0.602,0.039-1.285-0.603-1.646c-0.642-0.242-1.404-0.119-1.926,0.322c-0.522,0.563-0.762,1.283-0.562,2.047
			c0.362,1.203,1.445,1.846,2.568,1.846c1.484-0.041,2.407-1.285,2.969-2.488c0.241,0,0.48,0,0.722,0
			c3.691-0.121,7.262-1.486,9.63-4.337c0.039-0.038,0.081-0.12,0.12-0.158c0.643-0.041,1.283-0.123,1.685-0.684
			c0.361-0.521,0.322-1.205-0.12-1.646c-0.32-0.281-0.762-0.401-1.163-0.24c-0.281,0.161-0.562,0.441-0.521,0.804
			c0,0.281,0.2,0.562,0.521,0.64c0.28,0.041,0.44-0.161,0.641-0.281c0.081,0.24-0.158,0.523-0.36,0.562
			c-0.28,0.082-0.481,0.082-0.721-0.038c-0.684-0.403-0.684-1.246-0.241-1.766c0.48-0.603,1.322-0.524,2.006-0.284
			c0-0.079,0.04-0.12,0.08-0.199c0.12-0.322,0.28-0.681,0.361-1.085c1.484-6.664-3.853-10.036-6.381-10.396
			c6.341,3.772,2.77,10.236-0.962,10.396c-0.321-0.801-1.283-1.444-2.167-0.921c-0.361,0.24-0.682,0.723-0.521,1.202
			c0.04,0.082,0.079,0.322,0.24,0.281c-0.081-0.24-0.12-0.521,0-0.761c0.241-0.523,0.842-0.684,1.324-0.523
			c0.482,0.202,0.722,0.685,0.722,1.205c-0.04,0.521-0.401,0.924-0.843,1.164c-0.561,0.281-1.123,0.041-1.685-0.161
			c-0.119,0.041-0.241,0.041-0.361,0.082c-1.525,0.199-3.209-0.123-4.694-0.845c-7.141-4.214-4.975-14.611,1.765-18.185
			C32.68,21.757,32.96,36.252,45.639,39.262c-0.802,0.321-1.604,0.523-2.366,0.602c-0.121,0-0.241,0.041-0.281,0.121
			c0.562,1.164,0.841,2.73-0.243,3.732c0.283-0.602,0.563-1.244,0.524-1.926c-0.202-1.605-1.766-2.89-3.371-2.609
			c-0.442,0.08-0.563,0.08-0.642,0.039c-4.013-1.606-7.182-6.022-8.466-9.875c0,0.039,0,0.08,0,0.121
			C31.195,36.29,36.09,40.426,37.535,40.949L37.535,40.949z"/>
	</g>
</g>
</svg>
